<?xml version="1.0" encoding="utf-8"?>
<!-- Generator: Adobe Illustrator 21.1.0, SVG Export Plug-In . SVG Version: 6.00 Build 0)  -->
<svg version="1.1" id="Слой_1" xmlns="http://www.w3.org/2000/svg" xmlns:xlink="http://www.w3.org/1999/xlink" x="0px" y="0px"
	 viewBox="0 0 595.3 841.9" style="enable-background:new 0 0 595.3 841.9;" xml:space="preserve">
<g>
	<path d="M290.3,382.9h-29.7c-0.9,0-1.6,0.7-1.6,1.6v29.7c0,0.9,0.7,1.6,1.6,1.6h29.7c0.9,0,1.6-0.7,1.6-1.6v-29.7
		C291.9,383.6,291.2,382.9,290.3,382.9z"/>
	<path d="M333.8,382.9h-29.7c-0.9,0-1.6,0.7-1.6,1.6v29.7c0,0.9,0.7,1.6,1.6,1.6h29.7c0.9,0,1.6-0.7,1.6-1.6v-29.7
		C335.4,383.6,334.7,382.9,333.8,382.9z"/>
	<path d="M290.3,426.4h-29.7c-0.9,0-1.6,0.7-1.6,1.6v29.7c0,0.9,0.7,1.6,1.6,1.6h29.7c0.9,0,1.6-0.7,1.6-1.6V428
		C291.9,427.1,291.2,426.4,290.3,426.4z"/>
	<path d="M333.8,426.4h-29.7c-0.9,0-1.6,0.7-1.6,1.6v29.7c0,0.9,0.7,1.6,1.6,1.6h29.7c0.9,0,1.6-0.7,1.6-1.6V428
		C335.4,427.1,334.7,426.4,333.8,426.4z"/>
</g>
</svg>
