<?xml version="1.0" encoding="utf-8"?>
<!-- Generator: Adobe Illustrator 16.0.0, SVG Export Plug-In . SVG Version: 6.00 Build 0)  -->
<!DOCTYPE svg PUBLIC "-//W3C//DTD SVG 1.1//EN" "http://www.w3.org/Graphics/SVG/1.1/DTD/svg11.dtd">
<svg version="1.1" id="Слой_1" xmlns="http://www.w3.org/2000/svg" xmlns:xlink="http://www.w3.org/1999/xlink" x="0px" y="0px"
	 width="77.999px" height="68.408px" viewBox="0 0 77.999 68.408" enable-background="new 0 0 77.999 68.408" xml:space="preserve">
<path fill="#F26B00" d="M39,2.835c-17.673,0-32,14.327-32,32c0,17.672,14.327,32,32,32c17.673,0,32-14.328,32-32
	C71,17.162,56.673,2.835,39,2.835z M54.788,38.214L35.104,57.867c-0.743,0.744-1.65,1.115-2.718,1.115
	c-1.065,0-1.972-0.371-2.715-1.115l-2.296-2.266c-0.743-0.785-1.116-1.699-1.116-2.746c0-1.064,0.373-1.973,1.116-2.719
	L42.05,35.467L27.377,20.825c-0.746-0.784-1.118-1.7-1.118-2.747c0-1.066,0.373-1.973,1.118-2.717l2.294-2.265
	c0.724-0.764,1.63-1.148,2.717-1.148c1.086,0,1.992,0.382,2.716,1.148l19.684,19.652c0.745,0.746,1.119,1.652,1.119,2.718
	C55.907,36.513,55.533,37.43,54.788,38.214z"/>
</svg>
