<?xml version="1.0" encoding="utf-8"?>
<!-- Generator: Adobe Illustrator 16.0.0, SVG Export Plug-In . SVG Version: 6.00 Build 0)  -->
<!DOCTYPE svg PUBLIC "-//W3C//DTD SVG 1.1//EN" "http://www.w3.org/Graphics/SVG/1.1/DTD/svg11.dtd">
<svg version="1.1" id="Слой_1" xmlns="http://www.w3.org/2000/svg" xmlns:xlink="http://www.w3.org/1999/xlink" x="0px" y="0px"
	 width="77.999px" height="68.408px" viewBox="0 0 77.999 68.408" enable-background="new 0 0 77.999 68.408" xml:space="preserve">
<path d="M7.125,19.147c-0.434,0.433-0.648,0.933-0.648,1.5c0,0.565,0.215,1.065,0.648,1.5l30.375,30.372
	c0.434,0.437,0.934,0.651,1.502,0.651c0.561,0,1.061-0.215,1.5-0.651l30.371-30.372c0.432-0.435,0.65-0.935,0.65-1.5
	c0-0.567-0.219-1.067-0.65-1.5l-3.26-3.258c-0.434-0.435-0.934-0.652-1.5-0.652c-0.563,0-1.063,0.218-1.5,0.652L39.001,41.502
	L13.382,15.89c-0.434-0.435-0.934-0.652-1.496-0.652c-0.566,0-1.066,0.218-1.5,0.652L7.125,19.147L7.125,19.147z M7.125,19.147"/>
</svg>
