<?xml version="1.0" encoding="utf-8"?>
<!-- Generator: Adobe Illustrator 16.0.0, SVG Export Plug-In . SVG Version: 6.00 Build 0)  -->
<!DOCTYPE svg PUBLIC "-//W3C//DTD SVG 1.1//EN" "http://www.w3.org/Graphics/SVG/1.1/DTD/svg11.dtd">
<svg version="1.1" id="Слой_1" xmlns="http://www.w3.org/2000/svg" xmlns:xlink="http://www.w3.org/1999/xlink" x="0px" y="0px"
	 width="96px" height="110px" viewBox="0 0 96 110" enable-background="new 0 0 96 110" xml:space="preserve">
<path d="M37.903,23.595l-3.258,3.262c-0.434,0.434-0.652,0.934-0.652,1.5c0,0.563,0.218,1.063,0.652,1.496L60.258,55.47
	L34.645,81.083c-0.434,0.437-0.652,0.937-0.652,1.5c0,0.565,0.218,1.065,0.652,1.5l3.258,3.259c0.433,0.432,0.933,0.651,1.5,0.651
	c0.566,0,1.066-0.22,1.5-0.651l30.372-30.371c0.437-0.438,0.651-0.938,0.651-1.5c0-0.567-0.215-1.067-0.651-1.5L40.903,23.595
	c-0.434-0.434-0.934-0.648-1.5-0.648C38.836,22.946,38.336,23.161,37.903,23.595L37.903,23.595z M37.903,23.595"/>
</svg>
