<?xml version="1.0" encoding="utf-8"?>
<!-- Generator: Adobe Illustrator 16.0.0, SVG Export Plug-In . SVG Version: 6.00 Build 0)  -->
<!DOCTYPE svg PUBLIC "-//W3C//DTD SVG 1.1//EN" "http://www.w3.org/Graphics/SVG/1.1/DTD/svg11.dtd">
<svg version="1.1" id="Слой_1" xmlns="http://www.w3.org/2000/svg" xmlns:xlink="http://www.w3.org/1999/xlink" x="0px" y="0px"
	 width="96px" height="110px" viewBox="0 0 96 110" enable-background="new 0 0 96 110" xml:space="preserve">
<path d="M54.67,23.595c-0.433-0.434-0.933-0.648-1.5-0.648c-0.565,0-1.065,0.215-1.5,0.648L21.299,53.97
	c-0.437,0.433-0.651,0.934-0.651,1.5c0,0.562,0.215,1.062,0.651,1.5L51.67,87.342c0.435,0.432,0.935,0.651,1.5,0.651
	c0.567,0,1.067-0.22,1.5-0.651l3.258-3.259c0.435-0.435,0.652-0.935,0.652-1.5c0-0.563-0.218-1.063-0.652-1.5L32.315,55.47
	l25.612-25.618c0.435-0.434,0.652-0.934,0.652-1.496c0-0.566-0.218-1.066-0.652-1.5L54.67,23.595L54.67,23.595z M54.67,23.595"/>
</svg>
