<?xml version="1.0" encoding="utf-8"?>
<!-- Generator: Adobe Illustrator 16.0.0, SVG Export Plug-In . SVG Version: 6.00 Build 0)  -->
<!DOCTYPE svg PUBLIC "-//W3C//DTD SVG 1.1//EN" "http://www.w3.org/Graphics/SVG/1.1/DTD/svg11.dtd">
<svg version="1.1" id="Слой_1" xmlns="http://www.w3.org/2000/svg" xmlns:xlink="http://www.w3.org/1999/xlink" x="0px" y="0px"
	 width="77.999px" height="68.408px" viewBox="0 0 77.999 68.408" enable-background="new 0 0 77.999 68.408" xml:space="preserve">
<g>
	<path d="M34.736,9.89H14.376c-0.606,0-1.099,0.493-1.099,1.099v20.359c0,0.606,0.493,1.099,1.099,1.099h20.359
		c0.606,0,1.096-0.493,1.096-1.099V10.989C35.832,10.383,35.342,9.89,34.736,9.89L34.736,9.89z M34.736,9.89"/>
	<path d="M64.59,9.89h-20.36c-0.607,0-1.098,0.493-1.098,1.099v20.359c0,0.606,0.49,1.099,1.098,1.099h20.36
		c0.605,0,1.097-0.493,1.097-1.099V10.989C65.687,10.383,65.195,9.89,64.59,9.89L64.59,9.89z M64.59,9.89"/>
	<path d="M34.736,39.745H14.376c-0.606,0-1.099,0.49-1.099,1.099v20.359c0,0.605,0.493,1.097,1.099,1.097h20.359
		c0.606,0,1.096-0.491,1.096-1.097V40.843C35.832,40.235,35.342,39.745,34.736,39.745L34.736,39.745z M34.736,39.745"/>
	<path d="M64.59,39.745h-20.36c-0.607,0-1.098,0.49-1.098,1.099v20.359c0,0.605,0.49,1.097,1.098,1.097h20.36
		c0.605,0,1.097-0.491,1.097-1.097V40.843C65.687,40.235,65.195,39.745,64.59,39.745L64.59,39.745z M64.59,39.745"/>
</g>
</svg>
