<?xml version="1.0" encoding="utf-8"?>
<!-- Generator: Adobe Illustrator 16.0.0, SVG Export Plug-In . SVG Version: 6.00 Build 0)  -->
<!DOCTYPE svg PUBLIC "-//W3C//DTD SVG 1.1//EN" "http://www.w3.org/Graphics/SVG/1.1/DTD/svg11.dtd">
<svg version="1.1" id="Слой_1" xmlns="http://www.w3.org/2000/svg" xmlns:xlink="http://www.w3.org/1999/xlink" x="0px" y="0px"
	 width="77.999px" height="68.408px" viewBox="0 0 77.999 68.408" enable-background="new 0 0 77.999 68.408" xml:space="preserve">
<g>
	<path fill-rule="evenodd" clip-rule="evenodd" fill="#050407" d="M51.423,48.124c1.003,0,1.907,0.407,2.556,1.065
		c0.656,0.648,1.063,1.551,1.063,2.554c0,0.997-0.407,1.899-1.063,2.548c-0.648,0.656-1.553,1.063-2.556,1.063
		c-0.995,0-1.899-0.407-2.556-1.063c-0.648-0.648-1.056-1.551-1.056-2.548c0-1.003,0.407-1.905,1.056-2.554
		C49.523,48.531,50.428,48.124,51.423,48.124L51.423,48.124z M52.931,50.237c-0.385-0.387-0.92-0.628-1.508-0.628
		s-1.115,0.241-1.508,0.628c-0.385,0.383-0.618,0.91-0.618,1.506c0,0.59,0.233,1.116,0.618,1.5c0.385,0.385,0.92,0.626,1.508,0.626
		s1.123-0.241,1.508-0.626c0.385-0.384,0.626-0.91,0.626-1.5C53.557,51.147,53.315,50.62,52.931,50.237L52.931,50.237z
		 M52.931,50.237"/>
	<path fill-rule="evenodd" clip-rule="evenodd" fill="#050407" d="M30.147,47.211c-0.211,0.347-0.664,0.462-1.01,0.249
		c-0.347-0.211-0.459-0.663-0.249-1.008l1.084-1.797c0.138-0.226,0.379-0.354,0.635-0.354v-0.005h22.488
		c0.414,0,0.746,0.329,0.746,0.744c0,0.407-0.332,0.738-0.746,0.738H31.014L30.147,47.211z M30.147,47.211"/>
	<path fill-rule="evenodd" clip-rule="evenodd" fill="#050407" d="M28.806,34.29c-0.407,0-0.739-0.332-0.739-0.739
		c0-0.407,0.332-0.739,0.739-0.739h28.227l0.603-3.227c0.075-0.399,0.468-0.664,0.867-0.588c0.399,0.075,0.663,0.459,0.588,0.859
		l-0.701,3.77c-0.037,0.369-0.361,0.663-0.738,0.663H28.806z M28.806,34.29"/>
	<path fill-rule="evenodd" clip-rule="evenodd" fill="#050407" d="M58.366,28.982c0.407,0,0.739,0.332,0.739,0.739
		s-0.332,0.739-0.739,0.739H27.133c-0.408,0-0.74-0.332-0.74-0.739s0.332-0.739,0.74-0.739H58.366z M58.366,28.982"/>
	<path fill-rule="evenodd" clip-rule="evenodd" fill="#050407" d="M27.735,41.952c-0.416,0-0.748-0.334-0.748-0.741
		s0.332-0.746,0.748-0.746H55.6l0.603-3.219c0.076-0.399,0.46-0.664,0.867-0.586c0.399,0.066,0.664,0.458,0.588,0.858l-0.701,3.769
		c-0.037,0.37-0.361,0.666-0.738,0.666H27.735z M27.735,41.952"/>
	<g>
		<defs>
			<rect id="SVGID_1_" x="12.393" y="19.408" width="48.174" height="36.67"/>
		</defs>
		<clipPath id="SVGID_2_">
			<use xlink:href="#SVGID_1_"  overflow="visible"/>
		</clipPath>
		<path clip-path="url(#SVGID_2_)" fill-rule="evenodd" clip-rule="evenodd" fill="#050407" d="M18.666,19.408
			c0.407,0,0.739,0.332,0.739,0.739c0,0.415-0.332,0.749-0.739,0.749h-5.534c-0.407,0-0.739-0.334-0.739-0.749
			c0-0.407,0.332-0.739,0.739-0.739H18.666z M18.666,19.408"/>
		<path clip-path="url(#SVGID_2_)" fill-rule="evenodd" clip-rule="evenodd" fill="#050407" d="M28.414,40.918
			c0.159,0.375-0.015,0.813-0.383,0.971c-0.379,0.158-0.814-0.014-0.973-0.385L17.986,20.44c-0.166-0.377,0.007-0.814,0.386-0.972
			c0.376-0.159,0.814,0.015,0.973,0.392L28.414,40.918z M28.414,40.918"/>
		<path clip-path="url(#SVGID_2_)" fill-rule="evenodd" clip-rule="evenodd" fill="#050407" d="M56.934,36.642
			c0.407,0,0.739,0.332,0.739,0.741c0,0.405-0.332,0.737-0.739,0.737H30.487c-0.3,0-0.565-0.188-0.679-0.445l-1.674-3.83
			c-0.166-0.377,0.009-0.805,0.385-0.973c0.37-0.166,0.807,0.007,0.972,0.384l1.479,3.385H56.934z M56.934,36.642"/>
		<path clip-path="url(#SVGID_2_)" fill-rule="evenodd" clip-rule="evenodd" fill="#050407" d="M15.485,23.682
			c0.166,0.377-0.008,0.807-0.379,0.973c-0.376,0.166-0.814-0.007-0.973-0.382l-1.681-3.832c-0.158-0.369,0.016-0.807,0.384-0.972
			c0.378-0.159,0.814,0.015,0.973,0.384L15.485,23.682z M15.485,23.682"/>
	</g>
	<path fill-rule="evenodd" clip-rule="evenodd" fill="#050407" d="M27.81,29.427c0.167,0.377-0.007,0.807-0.376,0.972
		c-0.376,0.166-0.814-0.007-0.973-0.384l-1.681-3.83c-0.158-0.369,0.015-0.807,0.385-0.972c0.098-0.038,0.197-0.061,0.295-0.061
		h33.624c0.406,0,0.738,0.332,0.738,0.739c0,0.407-0.332,0.739-0.738,0.739H26.588L27.81,29.427z M27.81,29.427"/>
	<path fill-rule="evenodd" clip-rule="evenodd" fill="#050407" d="M16.616,23.238c0.413,0,0.744,0.332,0.744,0.739
		c0,0.407-0.332,0.746-0.744,0.746h-1.803c-0.415,0-0.747-0.339-0.747-0.746c0-0.407,0.332-0.739,0.747-0.739H16.616z
		 M16.616,23.238"/>
	<path fill-rule="evenodd" clip-rule="evenodd" fill="#050407" d="M26.537,48.124c0.996,0,1.899,0.407,2.555,1.065
		c0.657,0.648,1.056,1.551,1.056,2.554c0,0.997-0.399,1.899-1.056,2.548c-0.656,0.656-1.559,1.063-2.555,1.063
		s-1.899-0.407-2.556-1.063c-0.656-0.648-1.056-1.551-1.056-2.548c0-1.003,0.399-1.905,1.056-2.554
		C24.638,48.531,25.541,48.124,26.537,48.124L26.537,48.124z M28.043,50.237c-0.384-0.387-0.919-0.628-1.507-0.628
		c-0.589,0-1.124,0.241-1.508,0.628c-0.384,0.383-0.625,0.91-0.625,1.506c0,0.59,0.241,1.116,0.625,1.5
		c0.384,0.385,0.918,0.626,1.508,0.626c0.588,0,1.123-0.241,1.507-0.626c0.386-0.384,0.627-0.91,0.627-1.5
		C28.671,51.147,28.43,50.62,28.043,50.237L28.043,50.237z M28.043,50.237"/>
</g>
</svg>
