<?xml version="1.0" encoding="utf-8"?>
<!-- Generator: Adobe Illustrator 16.0.0, SVG Export Plug-In . SVG Version: 6.00 Build 0)  -->
<!DOCTYPE svg PUBLIC "-//W3C//DTD SVG 1.1//EN" "http://www.w3.org/Graphics/SVG/1.1/DTD/svg11.dtd">
<svg version="1.1" id="Слой_1" xmlns="http://www.w3.org/2000/svg" xmlns:xlink="http://www.w3.org/1999/xlink" x="0px" y="0px"
	 width="77.999px" height="68.408px" viewBox="0 0 77.999 68.408" enable-background="new 0 0 77.999 68.408" xml:space="preserve">
<g>
	<g>
		<defs>
			<rect id="SVGID_1_" x="6.722" y="8.702" width="66.943" height="51.004"/>
		</defs>
		<clipPath id="SVGID_2_">
			<use xlink:href="#SVGID_1_"  overflow="visible"/>
		</clipPath>
		<path clip-path="url(#SVGID_2_)" d="M7.481,36.756c-0.511-0.511-0.76-1.283-0.76-1.793c0-0.511,0.249-1.271,0.76-1.778
			l3.574-3.574c1.021-1.027,2.553-1.027,3.574,0l0.249,0.262l14.034,15.039c0.51,0.511,1.27,0.511,1.781,0L64.861,9.458h0.262
			c1.021-1.005,2.553-1.005,3.573,0l3.562,3.574c1.021,1.027,1.021,2.556,0,3.574L31.464,58.947
			c-0.511,0.51-1.021,0.759-1.793,0.759c-0.76,0-1.271-0.249-1.781-0.759L7.992,37.516L7.481,36.756z M7.481,36.756"/>
	</g>
</g>
</svg>
