<?xml version="1.0" encoding="utf-8"?>
<!-- Generator: Adobe Illustrator 16.0.0, SVG Export Plug-In . SVG Version: 6.00 Build 0)  -->
<!DOCTYPE svg PUBLIC "-//W3C//DTD SVG 1.1//EN" "http://www.w3.org/Graphics/SVG/1.1/DTD/svg11.dtd">
<svg version="1.1" id="Слой_1" xmlns="http://www.w3.org/2000/svg" xmlns:xlink="http://www.w3.org/1999/xlink" x="0px" y="0px"
	 width="77.999px" height="68.408px" viewBox="0 0 77.999 68.408" enable-background="new 0 0 77.999 68.408" xml:space="preserve">
<path d="M22.998,45.955V14.693c0-0.442-0.355-0.801-0.796-0.801c-0.442,0-0.801,0.359-0.801,0.801v31.261
	c-2.711,0.391-4.801,2.723-4.801,5.539c0,3.086,2.512,5.598,5.602,5.598c3.086,0,5.597-2.512,5.597-5.598
	C27.798,48.677,25.708,46.345,22.998,45.955L22.998,45.955z"/>
<path d="M22.202,55.494c-2.207,0-4-1.797-4-4c0-2.207,1.793-4,4-4c2.203,0,4,1.793,4,4C26.202,53.697,24.405,55.494,22.202,55.494
	L22.202,55.494z"/>
<path d="M22.202,55.494"/>
<path d="M39.799,29.65V14.693c0-0.442-0.359-0.801-0.802-0.801c-0.44,0-0.795,0.359-0.795,0.801V29.6
	c-2.883,0.316-5.133,2.762-5.133,5.727s2.25,5.414,5.133,5.73v15.234c0,0.445,0.354,0.801,0.795,0.801
	c0.442,0,0.802-0.355,0.802-0.801V41.005c2.723-0.461,4.801-2.828,4.801-5.679C44.6,32.479,42.521,30.111,39.799,29.65L39.799,29.65
	z"/>
<path d="M38.833,39.494c-2.295,0-4.164-1.871-4.164-4.167s1.869-4.164,4.164-4.164c2.298,0,4.165,1.867,4.165,4.164
	S41.131,39.494,38.833,39.494L38.833,39.494z"/>
<path d="M38.833,39.494"/>
<path d="M61.4,19.495c0-3.09-2.512-5.602-5.602-5.602c-3.086,0-5.598,2.512-5.598,5.602c0,2.812,2.09,5.144,4.797,5.535v31.261
	c0,0.445,0.359,0.801,0.801,0.801s0.801-0.355,0.801-0.801V25.029C59.311,24.639,61.4,22.307,61.4,19.495L61.4,19.495z"/>
<path d="M55.799,23.495c-2.203,0-4-1.797-4-4c0-2.207,1.797-4,4-4c2.207,0,4,1.793,4,4C59.799,21.698,58.006,23.495,55.799,23.495
	L55.799,23.495z"/>
<path d="M55.799,23.495"/>
</svg>
