<?xml version="1.0" encoding="utf-8"?>
<!-- Generator: Adobe Illustrator 16.0.0, SVG Export Plug-In . SVG Version: 6.00 Build 0)  -->
<!DOCTYPE svg PUBLIC "-//W3C//DTD SVG 1.1//EN" "http://www.w3.org/Graphics/SVG/1.1/DTD/svg11.dtd">
<svg version="1.1" id="Слой_1" xmlns="http://www.w3.org/2000/svg" xmlns:xlink="http://www.w3.org/1999/xlink" x="0px" y="0px"
	 width="77.999px" height="68.408px" viewBox="0 0 77.999 68.408" enable-background="new 0 0 77.999 68.408" xml:space="preserve">
<g>
	<path d="M22.997,46.937V15.675c0-0.442-0.355-0.801-0.796-0.801c-0.442,0-0.801,0.359-0.801,0.801v31.262
		c-2.711,0.391-4.801,2.723-4.801,5.539c0,3.086,2.512,5.598,5.602,5.598c3.086,0,5.597-2.512,5.597-5.598
		C27.798,49.66,25.708,47.328,22.997,46.937L22.997,46.937z M22.201,56.476c-2.207,0-4-1.797-4-4c0-2.207,1.793-4,4-4
		c2.203,0,4,1.793,4,4C26.201,54.679,24.404,56.476,22.201,56.476L22.201,56.476z M22.201,56.476"/>
	<path d="M39.798,30.632V15.675c0-0.442-0.359-0.801-0.801-0.801s-0.796,0.359-0.796,0.801v14.906
		c-2.883,0.316-5.133,2.762-5.133,5.727s2.25,5.414,5.133,5.73v15.234c0,0.445,0.354,0.801,0.796,0.801s0.801-0.355,0.801-0.801
		V41.988c2.723-0.461,4.801-2.828,4.801-5.68C44.599,33.46,42.521,31.093,39.798,30.632L39.798,30.632z M38.833,40.476
		c-2.296,0-4.164-1.871-4.164-4.168s1.868-4.164,4.164-4.164c2.297,0,4.164,1.867,4.164,4.164S41.13,40.476,38.833,40.476
		L38.833,40.476z M38.833,40.476"/>
	<path d="M61.399,20.477c0-3.09-2.512-5.602-5.602-5.602c-3.086,0-5.598,2.512-5.598,5.602c0,2.812,2.09,5.144,4.797,5.535v31.262
		c0,0.445,0.359,0.801,0.801,0.801s0.801-0.355,0.801-0.801V26.011C59.31,25.621,61.399,23.289,61.399,20.477L61.399,20.477z
		 M55.798,24.476c-2.203,0-4-1.797-4-4c0-2.207,1.797-4,4-4c2.207,0,4,1.793,4,4C59.798,22.679,58.005,24.476,55.798,24.476
		L55.798,24.476z M55.798,24.476"/>
</g>
</svg>
