<?xml version="1.0" encoding="utf-8"?>
<!-- Generator: Adobe Illustrator 16.0.0, SVG Export Plug-In . SVG Version: 6.00 Build 0)  -->
<!DOCTYPE svg PUBLIC "-//W3C//DTD SVG 1.1//EN" "http://www.w3.org/Graphics/SVG/1.1/DTD/svg11.dtd">
<svg version="1.1" id="Слой_1" xmlns="http://www.w3.org/2000/svg" xmlns:xlink="http://www.w3.org/1999/xlink" x="0px" y="0px"
	 width="77.999px" height="68.408px" viewBox="0 0 77.999 68.408" enable-background="new 0 0 77.999 68.408" xml:space="preserve">
<g>
	<path d="M61.8,21.007H49.593c0.648-0.935,1.004-2.039,1.004-3.207c0-1.5-0.578-2.907-1.633-3.961c-2.184-2.184-5.734-2.184-7.918,0
		l-2.266,2.265l-2.262-2.265c-2.183-2.184-5.734-2.184-7.918,0c-1.054,1.054-1.636,2.461-1.636,3.961
		c0,1.168,0.355,2.272,1.007,3.207H16.198v11.198h4v24.001h38.398V32.206H61.8V21.007z M42.175,14.972
		c1.563-1.559,4.098-1.559,5.656,0c0.754,0.75,1.168,1.753,1.168,2.828c0,1.07-0.414,2.078-1.168,2.828l-0.375,0.379H36.139
		L42.175,14.972z M29.729,20.628c-0.75-0.75-1.164-1.758-1.164-2.828c0-1.075,0.414-2.078,1.164-2.828
		c1.563-1.559,4.098-1.559,5.66,0l2.262,2.261l-2.828,2.828c-0.168,0.168-0.32,0.352-0.465,0.551
		c-0.043,0.06-0.086,0.121-0.129,0.185c-0.047,0.069-0.097,0.133-0.144,0.207h-3.977L29.729,20.628z M17.8,30.604v-8h20.796v8H17.8z
		 M38.597,32.206v9.6H21.8v-9.6H38.597z M21.8,43.406h16.796v11.199H21.8V43.406z M40.198,54.605V43.406h16.801v11.199H40.198z
		 M56.999,41.805H40.198v-9.6h16.801V41.805z M60.198,30.604h-20v-8h20V30.604z M60.198,30.604"/>
</g>
</svg>
