<?xml version="1.0" encoding="utf-8"?>
<!-- Generator: Adobe Illustrator 16.0.0, SVG Export Plug-In . SVG Version: 6.00 Build 0)  -->
<!DOCTYPE svg PUBLIC "-//W3C//DTD SVG 1.1//EN" "http://www.w3.org/Graphics/SVG/1.1/DTD/svg11.dtd">
<svg version="1.1" id="Слой_1" xmlns="http://www.w3.org/2000/svg" xmlns:xlink="http://www.w3.org/1999/xlink" x="0px" y="0px"
	 width="77.999px" height="68.408px" viewBox="0 0 77.999 68.408" enable-background="new 0 0 77.999 68.408" xml:space="preserve">
<g>
	<path d="M49.506,29.801v-9.117c0-5.117-4.484-9.281-10-9.281c-5.511,0-10,4.164-10,9.281v9.117h-8.107v27.203h35.199V29.801H49.506
		z M31.108,20.684c0-4.234,3.765-7.679,8.398-7.679s8.402,3.445,8.402,7.679v9.117h-16.8V20.684z M55.001,55.403h-32v-3.199h32
		V55.403z M23.001,50.602V31.403h32v19.199H23.001z M23.001,50.602"/>
	<path d="M39.001,36.204c-1.766,0-3.204,1.433-3.204,3.199v4.801c0,1.765,1.438,3.199,3.204,3.199c1.762,0,3.199-1.435,3.199-3.199
		v-4.801C42.2,37.636,40.763,36.204,39.001,36.204L39.001,36.204z M40.599,44.204c0,0.883-0.719,1.597-1.598,1.597
		c-0.883,0-1.602-0.714-1.602-1.597v-4.801c0-0.883,0.719-1.603,1.602-1.603c0.879,0,1.598,0.72,1.598,1.603V44.204z M40.599,44.204
		"/>
</g>
</svg>
