<?xml version="1.0" encoding="utf-8"?>
<!-- Generator: Adobe Illustrator 16.0.0, SVG Export Plug-In . SVG Version: 6.00 Build 0)  -->
<!DOCTYPE svg PUBLIC "-//W3C//DTD SVG 1.1//EN" "http://www.w3.org/Graphics/SVG/1.1/DTD/svg11.dtd">
<svg version="1.1" id="Слой_1" xmlns="http://www.w3.org/2000/svg" xmlns:xlink="http://www.w3.org/1999/xlink" x="0px" y="0px"
	 width="77.999px" height="68.408px" viewBox="0 0 77.999 68.408" enable-background="new 0 0 77.999 68.408" xml:space="preserve">
<path d="M22.202,55.494"/>
<path d="M57.234,30.035"/>
<rect x="17.617" y="14.284" fill="none" width="42" height="39.84"/>
<path d="M59.145,26.019c-0.605-6.683-5.336-11.531-11.258-11.531c-3.941,0-7.555,2.125-9.585,5.523
	c-2.013-3.445-5.478-5.523-9.356-5.523c-5.922,0-10.652,4.848-11.258,11.531c-0.05,0.297-0.246,1.848,0.352,4.383
	c0.863,3.655,2.855,6.98,5.762,9.609l14.492,13.152l14.738-13.148c2.906-2.633,4.898-5.958,5.762-9.613
	C59.391,27.871,59.191,26.316,59.145,26.019z M30.418,20.949c-3.531,0-6.403,2.871-6.403,6.401c0,0.443-0.355,0.802-0.8,0.802
	c-0.442,0-0.797-0.358-0.797-0.802c0-4.409,3.586-8,8-8c0.441,0,0.797,0.356,0.797,0.801C31.215,20.593,30.859,20.949,30.418,20.949
	z"/>
</svg>
