<?xml version="1.0" encoding="utf-8"?>
<!-- Generator: Adobe Illustrator 16.0.0, SVG Export Plug-In . SVG Version: 6.00 Build 0)  -->
<!DOCTYPE svg PUBLIC "-//W3C//DTD SVG 1.1//EN" "http://www.w3.org/Graphics/SVG/1.1/DTD/svg11.dtd">
<svg version="1.1" id="Слой_1" xmlns="http://www.w3.org/2000/svg" xmlns:xlink="http://www.w3.org/1999/xlink" x="0px" y="0px"
	 width="77.999px" height="68.408px" viewBox="0 0 77.999 68.408" enable-background="new 0 0 77.999 68.408" xml:space="preserve">
<g>
	<g>
		<defs>
			<rect id="SVGID_1_" x="17.999" y="14.284" width="42" height="39.84"/>
		</defs>
		<clipPath id="SVGID_2_">
			<use xlink:href="#SVGID_1_"  overflow="visible"/>
		</clipPath>
		<path clip-path="url(#SVGID_2_)" d="M59.526,26.02c-0.605-6.683-5.336-11.531-11.258-11.531c-3.941,0-7.555,2.125-9.586,5.522
			c-2.012-3.444-5.477-5.522-9.355-5.522c-5.922,0-10.652,4.848-11.258,11.531c-0.05,0.297-0.246,1.848,0.352,4.383
			c0.863,3.655,2.855,6.98,5.762,9.609l14.492,13.152l14.738-13.148c2.906-2.632,4.898-5.958,5.762-9.613
			C59.772,27.871,59.573,26.316,59.526,26.02L59.526,26.02z M57.616,30.035c-0.789,3.341-2.613,6.379-5.273,8.789l-13.66,12.188
			L25.257,38.828c-2.664-2.414-4.488-5.452-5.278-8.792c-0.566-2.399-0.332-3.75-0.332-3.762l0.012-0.078
			c0.52-5.854,4.586-10.105,9.668-10.105c3.746,0,7.047,2.3,8.613,6.01l0.738,1.746l0.738-1.746c1.539-3.651,5.016-6.01,8.855-6.01
			c5.078,0,9.145,4.25,9.676,10.179C57.948,26.285,58.183,27.64,57.616,30.035L57.616,30.035z M57.616,30.035"/>
	</g>
	<path d="M30.8,19.351c-4.414,0-8,3.59-8,8c0,0.443,0.355,0.802,0.797,0.802c0.445,0,0.8-0.358,0.8-0.802
		c0-3.53,2.872-6.401,6.403-6.401c0.441,0,0.797-0.356,0.797-0.797C31.597,19.707,31.241,19.351,30.8,19.351L30.8,19.351z
		 M30.8,19.351"/>
</g>
</svg>
