<?xml version="1.0" encoding="utf-8"?>
<!-- Generator: Adobe Illustrator 16.0.0, SVG Export Plug-In . SVG Version: 6.00 Build 0)  -->
<!DOCTYPE svg PUBLIC "-//W3C//DTD SVG 1.1//EN" "http://www.w3.org/Graphics/SVG/1.1/DTD/svg11.dtd">
<svg version="1.1" id="Слой_1" xmlns="http://www.w3.org/2000/svg" xmlns:xlink="http://www.w3.org/1999/xlink" x="0px" y="0px"
	 width="77.999px" height="68.408px" viewBox="0 0 77.999 68.408" enable-background="new 0 0 77.999 68.408" xml:space="preserve">
<g>
	<path d="M61.749,20.408l-2.738-10.223l-0.23-0.847l-17.43,4.671H17.397v6.399h-2.398v34.397h48V20.408H61.749z M18.37,22.008
		h41.723L44.261,38.02l0.039,0.039l-4.355,4.379c-0.531,0.492-1.359,0.488-1.867,0.021l-4.379-4.399l0.039-0.039l-15.82-16.012
		H18.37z M49.058,19.396l4.637-1.242l0.602,2.254h-4.969L49.058,19.396z M31.417,38.033L16.601,52.291V23.146L31.417,38.033z
		 M32.546,39.169l4.418,4.437c0.566,0.527,1.297,0.793,2.027,0.793c0.738,0,1.48-0.269,2.066-0.815l4.395-4.414l14.59,14.039H17.948
		L32.546,39.169z M46.581,38.037l14.816-14.891v29.145L46.581,38.037z M60.093,20.408h-4.141l-1.129-4.211l-7.727,2.07l0.574,2.142
		H23.647l34.004-9.113L60.093,20.408z M35.378,15.606l-0.902,0.242l-15.477,4.149v-4.391H35.378z M35.378,15.606"/>
</g>
</svg>
