<?xml version="1.0" encoding="utf-8"?>
<!-- Generator: Adobe Illustrator 16.0.0, SVG Export Plug-In . SVG Version: 6.00 Build 0)  -->
<!DOCTYPE svg PUBLIC "-//W3C//DTD SVG 1.1//EN" "http://www.w3.org/Graphics/SVG/1.1/DTD/svg11.dtd">
<svg version="1.1" id="Слой_1" xmlns="http://www.w3.org/2000/svg" xmlns:xlink="http://www.w3.org/1999/xlink" x="0px" y="0px"
	 width="77.999px" height="68.408px" viewBox="0 0 77.999 68.408" enable-background="new 0 0 77.999 68.408" xml:space="preserve">
<g>
	<g>
		<defs>
			<rect id="SVGID_1_" x="14.999" y="10.204" width="48" height="48"/>
		</defs>
		<clipPath id="SVGID_2_">
			<use xlink:href="#SVGID_1_"  overflow="visible"/>
		</clipPath>
		<path clip-path="url(#SVGID_2_)" d="M31.409,33.383c-1.816-2.051-4.238-3.18-6.82-3.18c-2.586,0-5.008,1.129-6.824,3.18
			c-3.688,4.173-3.688,10.953,0,15.121l6.824,7.707l6.82-7.707C35.101,44.336,35.101,37.556,31.409,33.383L31.409,33.383z
			 M30.21,47.442l-5.621,6.355l-5.625-6.355c-3.172-3.582-3.172-9.414,0-12.996c1.508-1.703,3.508-2.641,5.625-2.641
			c2.117,0,4.113,0.938,5.621,2.641C33.386,38.028,33.386,43.86,30.21,47.442L30.21,47.442z M30.21,47.442"/>
	</g>
	<path d="M53.593,29.809l5.168-5.828c2.785-3.137,2.785-8.238,0-11.375c-1.375-1.547-3.211-2.402-5.172-2.402
		c-1.957,0-3.793,0.855-5.168,2.402c-2.785,3.137-2.785,8.238,0,11.375L53.593,29.809z M49.616,13.669
		c1.066-1.203,2.48-1.863,3.973-1.863c1.496,0,2.91,0.66,3.977,1.863c2.262,2.551,2.262,6.699,0,9.25l-3.973,4.48l-3.977-4.48
		C47.354,20.368,47.354,16.22,49.616,13.669L49.616,13.669z M49.616,13.669"/>
	<path d="M56.675,53.817c-0.43-0.097-0.855,0.176-0.953,0.605c-0.094,0.406-0.27,0.781-0.531,1.113
		c-0.273,0.349-0.215,0.853,0.133,1.125c0.148,0.113,0.32,0.168,0.496,0.168c0.238,0,0.473-0.102,0.629-0.305
		c0.402-0.511,0.691-1.117,0.832-1.75C57.378,54.341,57.108,53.915,56.675,53.817L56.675,53.817z M56.675,53.817"/>
	<path d="M40.19,35.004c-0.348,0-0.684-0.063-1.004-0.184c-0.41-0.156-0.875,0.047-1.031,0.461s0.051,0.875,0.461,1.031
		c0.504,0.191,1.027,0.289,1.57,0.289h0.285c0.445,0,0.801-0.355,0.801-0.796c0-0.446-0.355-0.802-0.801-0.802H40.19z M40.19,35.004
		"/>
	<path d="M38.292,29.946c0.145,0,0.289-0.039,0.422-0.121c0.352-0.223,0.746-0.355,1.16-0.402c0.441-0.051,0.758-0.445,0.711-0.883
		c-0.051-0.441-0.441-0.754-0.883-0.711c-0.66,0.074-1.277,0.285-1.836,0.637c-0.375,0.234-0.488,0.727-0.258,1.102
		C37.761,29.809,38.022,29.946,38.292,29.946L38.292,29.946z M38.292,29.946"/>
	<path d="M29.046,56.602h-1.602c-0.441,0-0.8,0.359-0.8,0.801c0,0.442,0.359,0.801,0.8,0.801h1.602c0.441,0,0.797-0.358,0.797-0.801
		C29.843,56.961,29.487,56.602,29.046,56.602L29.046,56.602z M29.046,56.602"/>
	<path d="M43.39,42.204c-0.07,0-0.137,0-0.207,0.004c-0.441,0.02-0.785,0.392-0.766,0.832c0.016,0.431,0.371,0.77,0.797,0.77
		c0.012,0,0.023,0,0.035-0.003h1.566c0.441,0,0.801-0.36,0.801-0.802s-0.359-0.801-0.801-0.801H43.39z M43.39,42.204"/>
	<path d="M42.987,29.403h1.602c0.441,0,0.801-0.355,0.801-0.801c0-0.441-0.359-0.797-0.801-0.797h-1.602
		c-0.441,0-0.801,0.355-0.801,0.797C42.187,29.047,42.546,29.403,42.987,29.403L42.987,29.403z M42.987,29.403"/>
	<path d="M52.815,42.204c-0.441,0-0.801,0.359-0.801,0.801s0.359,0.802,0.801,0.802h1.602c0.441,0,0.801-0.36,0.801-0.802
		s-0.359-0.801-0.801-0.801H52.815z M52.815,42.204"/>
	<path d="M55.675,35.806c0-0.446-0.359-0.802-0.801-0.802h-1.602c-0.441,0-0.797,0.355-0.797,0.802c0,0.44,0.355,0.796,0.797,0.796
		h1.602C55.315,36.602,55.675,36.247,55.675,35.806L55.675,35.806z M55.675,35.806"/>
	<path d="M48.015,43.806h1.602c0.441,0,0.801-0.36,0.801-0.802s-0.359-0.801-0.801-0.801h-1.602c-0.441,0-0.797,0.359-0.797,0.801
		S47.573,43.806,48.015,43.806L48.015,43.806z M48.015,43.806"/>
	<path d="M49.39,29.403c0.441,0,0.797-0.355,0.797-0.801c0-0.441-0.355-0.797-0.797-0.797h-1.602c-0.441,0-0.801,0.355-0.801,0.797
		c0,0.445,0.359,0.801,0.801,0.801H49.39z M49.39,29.403"/>
	<path d="M43.675,35.004c-0.441,0-0.801,0.355-0.801,0.802c0,0.44,0.359,0.796,0.801,0.796h1.598c0.445,0,0.801-0.355,0.801-0.796
		c0-0.446-0.355-0.802-0.801-0.802H43.675z M43.675,35.004"/>
	<path d="M50.874,35.806c0-0.446-0.355-0.802-0.801-0.802h-1.598c-0.445,0-0.801,0.355-0.801,0.802c0,0.44,0.355,0.796,0.801,0.796
		h1.598C50.515,36.602,50.874,36.247,50.874,35.806L50.874,35.806z M50.874,35.806"/>
	<path d="M62.136,38.708c-0.07-0.434-0.484-0.733-0.918-0.66c-0.438,0.066-0.734,0.48-0.664,0.914
		c0.023,0.145,0.035,0.289,0.035,0.441c0,0.27-0.039,0.535-0.113,0.793c-0.125,0.422,0.117,0.867,0.543,0.992
		c0.074,0.02,0.148,0.032,0.223,0.032c0.348,0,0.668-0.228,0.77-0.575c0.117-0.402,0.176-0.82,0.176-1.234
		C62.19,39.181,62.171,38.942,62.136,38.708L62.136,38.708z M62.136,38.708"/>
	<path d="M48.245,56.602h-1.602c-0.441,0-0.801,0.359-0.801,0.801c0,0.442,0.359,0.801,0.801,0.801h1.602
		c0.441,0,0.801-0.358,0.801-0.801C49.046,56.961,48.687,56.602,48.245,56.602L48.245,56.602z M48.245,56.602"/>
	<path d="M43.444,56.602h-1.602c-0.441,0-0.797,0.359-0.797,0.801c0,0.442,0.355,0.801,0.797,0.801h1.602
		c0.441,0,0.801-0.358,0.801-0.801C44.245,56.961,43.886,56.602,43.444,56.602L43.444,56.602z M43.444,56.602"/>
	<path d="M52.245,50.204c0-0.44-0.355-0.801-0.801-0.801h-1.598c-0.445,0-0.801,0.36-0.801,0.801c0,0.441,0.355,0.801,0.801,0.801
		h1.598C51.886,51.004,52.245,50.645,52.245,50.204L52.245,50.204z M52.245,50.204"/>
	<path d="M47.444,50.204c0-0.44-0.355-0.801-0.801-0.801h-1.598c-0.441,0-0.801,0.36-0.801,0.801c0,0.441,0.359,0.801,0.801,0.801
		h1.598C47.089,51.004,47.444,50.645,47.444,50.204L47.444,50.204z M47.444,50.204"/>
	<path d="M52.987,56.602h-1.543c-0.441,0-0.801,0.359-0.801,0.801c0,0.442,0.359,0.801,0.801,0.801h1.578l0.02-0.801v0.801
		c0.445,0,0.773-0.358,0.773-0.801C53.815,56.961,53.429,56.602,52.987,56.602L52.987,56.602z M52.987,56.602"/>
	<path d="M55.819,52.379c0.172,0,0.348-0.055,0.492-0.172c0.348-0.273,0.406-0.776,0.133-1.125c-0.402-0.508-0.918-0.934-1.5-1.219
		c-0.398-0.199-0.879-0.035-1.074,0.36c-0.195,0.394-0.035,0.875,0.359,1.069c0.371,0.184,0.703,0.453,0.957,0.781
		C55.347,52.274,55.581,52.379,55.819,52.379L55.819,52.379z M55.819,52.379"/>
	<path d="M58.87,41.985c-0.344,0.145-0.707,0.219-1.082,0.219h-0.172c-0.441,0-0.801,0.359-0.801,0.801s0.359,0.802,0.801,0.802
		h0.172c0.59,0,1.16-0.118,1.699-0.345c0.41-0.172,0.602-0.641,0.43-1.047C59.745,42.009,59.272,41.817,58.87,41.985L58.87,41.985z
		 M58.87,41.985"/>
	<path d="M37.019,34.086c0.418-0.137,0.645-0.59,0.508-1.008c-0.09-0.281-0.137-0.574-0.137-0.871c0-0.121,0.008-0.242,0.02-0.359
		c0.055-0.438-0.254-0.84-0.691-0.895c-0.453-0.051-0.84,0.258-0.895,0.695c-0.023,0.18-0.035,0.363-0.035,0.555
		c0,0.469,0.074,0.934,0.219,1.375c0.109,0.336,0.422,0.551,0.758,0.551C36.851,34.129,36.933,34.114,37.019,34.086L37.019,34.086z
		 M37.019,34.086"/>
	<path d="M33.843,56.602h-1.598c-0.441,0-0.801,0.359-0.801,0.801c0,0.442,0.36,0.801,0.801,0.801h1.598
		c0.445,0,0.801-0.358,0.801-0.801C34.644,56.961,34.288,56.602,33.843,56.602L33.843,56.602z M33.843,56.602"/>
	<path d="M41.89,50.681c0.305,0,0.594-0.177,0.73-0.47c0.184-0.402,0.008-0.875-0.395-1.059c-0.375-0.172-0.715-0.429-0.984-0.75
		c-0.285-0.34-0.789-0.383-1.125-0.097c-0.34,0.284-0.383,0.789-0.098,1.128c0.418,0.497,0.949,0.902,1.539,1.172
		C41.667,50.657,41.78,50.681,41.89,50.681L41.89,50.681z M41.89,50.681"/>
	<path d="M59.991,35.595c-0.57-0.332-1.195-0.528-1.855-0.579c-0.438-0.031-0.824,0.293-0.859,0.734s0.293,0.828,0.734,0.859
		c0.418,0.035,0.816,0.156,1.176,0.367c0.129,0.075,0.266,0.109,0.402,0.109c0.277,0,0.543-0.145,0.691-0.398
		C60.503,36.306,60.374,35.817,59.991,35.595L59.991,35.595z M59.991,35.595"/>
	<path d="M38.644,56.602h-1.598c-0.445,0-0.801,0.359-0.801,0.801c0,0.442,0.356,0.801,0.801,0.801h1.598
		c0.445,0,0.801-0.358,0.801-0.801C39.444,56.961,39.085,56.602,38.644,56.602L38.644,56.602z M38.644,56.602"/>
	<path d="M40.636,46.075c0.082-0.41,0.246-0.793,0.496-1.129c0.262-0.354,0.188-0.855-0.168-1.121
		c-0.359-0.258-0.859-0.183-1.121,0.172c-0.391,0.531-0.652,1.129-0.777,1.777c-0.082,0.434,0.199,0.852,0.637,0.938
		c0.051,0.009,0.102,0.016,0.148,0.016C40.229,46.724,40.562,46.458,40.636,46.075L40.636,46.075z M40.636,46.075"/>
	<path d="M53.788,22.204c2.426,0,4.398-1.973,4.398-4.398c0-2.426-1.973-4.403-4.398-4.403s-4.398,1.977-4.398,4.403
		C49.39,20.231,51.362,22.204,53.788,22.204L53.788,22.204z M53.788,15.005c1.543,0,2.801,1.254,2.801,2.801
		c0,1.543-1.258,2.796-2.801,2.796s-2.801-1.253-2.801-2.796C50.987,16.259,52.245,15.005,53.788,15.005L53.788,15.005z
		 M53.788,15.005"/>
	<path d="M24.589,35.004c-2.649,0-4.801,2.152-4.801,4.802c0,2.644,2.152,4.796,4.801,4.796c2.644,0,4.801-2.152,4.801-4.796
		C29.39,37.157,27.233,35.004,24.589,35.004L24.589,35.004z M24.589,43.004c-1.766,0-3.199-1.438-3.199-3.198
		c0-1.767,1.433-3.204,3.199-3.204c1.765,0,3.199,1.438,3.199,3.204C27.788,41.567,26.354,43.004,24.589,43.004L24.589,43.004z
		 M24.589,43.004"/>
</g>
</svg>
