<?xml version="1.0" encoding="utf-8"?>
<!-- Generator: Adobe Illustrator 16.0.0, SVG Export Plug-In . SVG Version: 6.00 Build 0)  -->
<!DOCTYPE svg PUBLIC "-//W3C//DTD SVG 1.1//EN" "http://www.w3.org/Graphics/SVG/1.1/DTD/svg11.dtd">
<svg version="1.1" id="Слой_1" xmlns="http://www.w3.org/2000/svg" xmlns:xlink="http://www.w3.org/1999/xlink" x="0px" y="0px"
	 width="77.999px" height="68.408px" viewBox="0 0 77.999 68.408" enable-background="new 0 0 77.999 68.408" xml:space="preserve">
<path d="M39.144,35.509c3.09,0,5.602-2.512,5.602-5.602c0-3.086-2.512-5.598-5.602-5.598s-5.602,2.512-5.602,5.598
	C33.542,32.998,36.054,35.509,39.144,35.509L39.144,35.509z M39.144,25.908c2.207,0,4,1.797,4,4c0,2.207-1.793,4-4,4s-4-1.793-4-4
	C35.144,27.705,36.937,25.908,39.144,25.908L39.144,25.908z M39.144,25.908"/>
<path d="M39.003,58.514l12.273-17.728c4.602-6.137,3.938-16.223-1.426-21.582c-2.898-2.898-6.75-4.496-10.848-4.496
	c-4.097,0-7.954,1.598-10.847,4.492c-5.364,5.363-6.032,15.449-1.446,21.563L39.003,58.514z M29.285,20.333
	c2.597-2.594,6.047-4.023,9.718-4.023c3.668,0,7.121,1.429,9.715,4.023c4.84,4.84,5.438,13.949,1.258,19.521L39.003,55.705
	L28.011,39.83C23.851,34.283,24.444,25.173,29.285,20.333L29.285,20.333z M29.285,20.333"/>
</svg>
