<?xml version="1.0" encoding="utf-8"?>
<!-- Generator: Adobe Illustrator 16.0.0, SVG Export Plug-In . SVG Version: 6.00 Build 0)  -->
<!DOCTYPE svg PUBLIC "-//W3C//DTD SVG 1.1//EN" "http://www.w3.org/Graphics/SVG/1.1/DTD/svg11.dtd">
<svg version="1.1" id="Слой_1" xmlns="http://www.w3.org/2000/svg" xmlns:xlink="http://www.w3.org/1999/xlink" x="0px" y="0px"
	 width="77.999px" height="68.408px" viewBox="0 0 77.999 68.408" enable-background="new 0 0 77.999 68.408" xml:space="preserve">
<g>
	<path d="M24.191,14.626c0,3.522-2.856,6.378-6.377,6.378c-3.525,0-6.381-2.856-6.381-6.378c0-3.524,2.855-6.38,6.381-6.38
		C21.335,8.246,24.191,11.102,24.191,14.626L24.191,14.626z M24.191,14.626"/>
	<path d="M24.191,32.174c0,3.521-2.856,6.378-6.377,6.378c-3.525,0-6.381-2.857-6.381-6.378c0-3.524,2.855-6.38,6.381-6.38
		C21.335,25.794,24.191,28.65,24.191,32.174L24.191,32.174z M24.191,32.174"/>
	<path d="M24.191,50.25c0,3.525-2.856,6.381-6.377,6.381c-3.525,0-6.381-2.855-6.381-6.381c0-3.521,2.855-6.377,6.381-6.377
		C21.335,43.873,24.191,46.728,24.191,50.25L24.191,50.25z M24.191,50.25"/>
	<path d="M31.471,18.799h34.65c0.309,0,0.605-0.123,0.826-0.343c0.22-0.219,0.343-0.517,0.343-0.827v-6.006
		c0-0.646-0.526-1.171-1.172-1.171H31.471c-0.646,0-1.17,0.525-1.17,1.171v6.006C30.301,18.276,30.826,18.799,31.471,18.799
		L31.471,18.799z M31.471,18.799"/>
	<path d="M66.118,27.999H31.471c-0.646,0-1.17,0.525-1.17,1.171v6.006c0,0.645,0.524,1.17,1.17,1.17h34.65
		c0.309,0,0.605-0.122,0.826-0.342c0.22-0.22,0.343-0.518,0.343-0.828v-6.006C67.29,28.524,66.764,27.999,66.118,27.999
		L66.118,27.999z M66.118,27.999"/>
	<path d="M66.118,46.078H31.471c-0.646,0-1.17,0.521-1.17,1.168v6.008c0,0.646,0.524,1.17,1.17,1.17h34.65
		c0.309,0,0.605-0.123,0.826-0.344c0.22-0.217,0.343-0.516,0.343-0.826v-6.008C67.29,46.599,66.764,46.078,66.118,46.078
		L66.118,46.078z M66.118,46.078"/>
</g>
</svg>
