<?xml version="1.0" encoding="utf-8"?>
<!-- Generator: Adobe Illustrator 16.0.0, SVG Export Plug-In . SVG Version: 6.00 Build 0)  -->
<!DOCTYPE svg PUBLIC "-//W3C//DTD SVG 1.1//EN" "http://www.w3.org/Graphics/SVG/1.1/DTD/svg11.dtd">
<svg version="1.1" id="Слой_1" xmlns="http://www.w3.org/2000/svg" xmlns:xlink="http://www.w3.org/1999/xlink" x="0px" y="0px"
	 width="77.999px" height="68.408px" viewBox="0 0 77.999 68.408" enable-background="new 0 0 77.999 68.408" xml:space="preserve">
<g>
	<g>
		<defs>
			<rect id="SVGID_1_" x="18.88" y="11.764" width="43.92" height="44.88"/>
		</defs>
		<clipPath id="SVGID_2_">
			<use xlink:href="#SVGID_1_"  overflow="visible"/>
		</clipPath>
		<path clip-path="url(#SVGID_2_)" d="M61.571,45.26c-1.605-3.035-7.184-6.328-7.43-6.472c-1.023-0.582-2.078-0.767-2.977-0.517
			c-0.676,0.188-1.227,0.613-1.598,1.235c-0.816,0.976-1.828,2.117-2.074,2.296c-1.895,1.282-3.398,1.129-5.035-0.504l-9.187-9.191
			c-1.637-1.637-1.786-3.141-0.508-5.031c0.179-0.245,1.32-1.262,2.297-2.077c0.621-0.371,1.05-0.923,1.238-1.595
			c0.246-0.897,0.066-1.957-0.523-2.987c-0.137-0.235-3.434-5.813-6.469-7.418c-1.539-0.817-3.403-0.539-4.637,0.695l-2.027,2.031
			c-3.211,3.211-4.375,6.848-3.457,10.817c0.761,3.304,2.992,6.819,6.625,10.453l11.761,11.762
			c4.609,4.613,9.008,6.925,13.039,6.925c2.961,0,5.727-1.246,8.234-3.754l2.027-2.031C62.106,48.667,62.388,46.803,61.571,45.26
			L61.571,45.26z M59.743,48.768l-2.031,2.028c-5.254,5.253-11.648,4.19-19.008-3.168L26.939,35.862
			c-3.414-3.414-5.5-6.676-6.196-9.684c-0.797-3.438,0.196-6.488,3.028-9.324l2.031-2.027c0.453-0.453,1.051-0.692,1.656-0.692
			c0.371,0,0.75,0.09,1.102,0.278c2.632,1.394,5.804,6.761,5.832,6.808c0.355,0.629,0.496,1.286,0.363,1.758
			c-0.078,0.285-0.258,0.504-0.547,0.668l-0.121,0.082c-0.68,0.57-2.305,1.945-2.645,2.449c-0.488,0.723-0.816,1.434-0.984,2.133
			c-0.57-1.137-1.027-2.449-1.18-3.906c-0.046-0.438-0.437-0.746-0.878-0.715c-0.438,0.047-0.758,0.442-0.715,0.879
			c0.578,5.563,4.906,9.185,5.09,9.336c0.019,0.017,0.043,0.023,0.062,0.039l8.492,8.488c0.035,0.035,0.07,0.067,0.105,0.103
			c0.031,0.039,0.047,0.086,0.086,0.125c0.148,0.147,3.762,3.651,9.277,4.226c0.027,0,0.059,0.004,0.082,0.004
			c0.406,0,0.754-0.308,0.797-0.718c0.047-0.438-0.273-0.832-0.715-0.879c-1.691-0.176-3.188-0.672-4.438-1.246
			c0.613-0.185,1.234-0.489,1.867-0.918c0.5-0.34,1.879-1.965,2.449-2.646l0.082-0.121c0.16-0.288,0.379-0.469,0.668-0.547
			c0.473-0.133,1.129,0.004,1.75,0.359c0.055,0.032,5.422,3.204,6.816,5.836C60.642,46.924,60.474,48.035,59.743,48.768
			L59.743,48.768z M59.743,48.768"/>
	</g>
</g>
</svg>
