<?xml version="1.0" encoding="utf-8"?>
<!-- Generator: Adobe Illustrator 16.0.0, SVG Export Plug-In . SVG Version: 6.00 Build 0)  -->
<!DOCTYPE svg PUBLIC "-//W3C//DTD SVG 1.1//EN" "http://www.w3.org/Graphics/SVG/1.1/DTD/svg11.dtd">
<svg version="1.1" id="Слой_1" xmlns="http://www.w3.org/2000/svg" xmlns:xlink="http://www.w3.org/1999/xlink" x="0px" y="0px"
	 width="77.999px" height="68.408px" viewBox="0 0 77.999 68.408" enable-background="new 0 0 77.999 68.408" xml:space="preserve">
<g>
	<path d="M47.875,10.204H27.723c-1.942,0-3.524,1.582-3.524,3.523v40.954c0,1.94,1.582,3.522,3.524,3.522h20.152
		c1.945,0,3.523-1.582,3.523-3.522V13.727C51.398,11.786,49.82,10.204,47.875,10.204L47.875,10.204z M25.801,16.602h24v30.402h-24
		V16.602z M27.723,11.806h20.152c1.063,0,1.926,0.863,1.926,1.921v1.278h-24v-1.278C25.801,12.669,26.664,11.806,27.723,11.806
		L27.723,11.806z M47.875,56.602H27.723c-1.059,0-1.922-0.863-1.922-1.921v-6.079h24v6.079
		C49.801,55.739,48.938,56.602,47.875,56.602L47.875,56.602z M47.875,56.602"/>
	<path d="M37.801,49.403c-1.767,0-3.199,1.438-3.199,3.199c0,1.766,1.433,3.204,3.199,3.204c1.766,0,3.199-1.438,3.199-3.204
		C41,50.84,39.566,49.403,37.801,49.403L37.801,49.403z M37.801,54.204c-0.883,0-1.603-0.719-1.603-1.602
		c0-0.878,0.72-1.598,1.603-1.598c0.884,0,1.598,0.72,1.598,1.598C39.398,53.485,38.685,54.204,37.801,54.204L37.801,54.204z
		 M37.801,54.204"/>
	<path d="M34.602,14.204h3.199c0.44,0,0.802-0.359,0.802-0.801c0-0.441-0.361-0.801-0.802-0.801h-3.199
		c-0.446,0-0.801,0.36-0.801,0.801C33.801,13.845,34.155,14.204,34.602,14.204L34.602,14.204z M34.602,14.204"/>
	<g>
		<defs>
			<rect id="SVGID_1_" x="13.801" y="10.204" width="48" height="48"/>
		</defs>
		<clipPath id="SVGID_2_">
			<use xlink:href="#SVGID_1_"  overflow="visible"/>
		</clipPath>
		<path clip-path="url(#SVGID_2_)" d="M40.199,14.204H41c0.441,0,0.801-0.359,0.801-0.801c0-0.441-0.359-0.801-0.801-0.801h-0.801
			c-0.441,0-0.801,0.36-0.801,0.801C39.398,13.845,39.758,14.204,40.199,14.204L40.199,14.204z M40.199,14.204"/>
		<path clip-path="url(#SVGID_2_)" d="M59.09,13.86c-0.313-0.312-0.82-0.312-1.133,0c-0.313,0.313-0.313,0.817,0,1.129
			c2.988,2.988,2.988,7.852,0,10.844c-0.313,0.313-0.313,0.816,0,1.129c0.156,0.156,0.363,0.234,0.566,0.234
			c0.207,0,0.41-0.078,0.566-0.234C62.703,23.352,62.703,17.474,59.09,13.86L59.09,13.86z M59.09,13.86"/>
		<path clip-path="url(#SVGID_2_)" d="M55.723,15.681c-0.316-0.313-0.82-0.313-1.133,0c-0.313,0.312-0.313,0.816,0,1.128
			c0.988,0.993,1.535,2.309,1.535,3.715c0,1.403-0.547,2.719-1.535,3.707c-0.313,0.313-0.313,0.82,0,1.133
			c0.156,0.156,0.359,0.234,0.566,0.234c0.203,0,0.41-0.078,0.566-0.234c1.289-1.293,2-3.012,2-4.84
			C57.723,18.692,57.012,16.97,55.723,15.681L55.723,15.681z M55.723,15.681"/>
		<path clip-path="url(#SVGID_2_)" d="M17.641,14.989c0.312-0.312,0.312-0.816,0-1.129c-0.313-0.312-0.817-0.312-1.129,0
			c-3.613,3.614-3.613,9.489,0,13.102c0.156,0.156,0.359,0.234,0.562,0.234c0.207,0,0.411-0.078,0.567-0.234
			c0.312-0.313,0.312-0.816,0-1.129C14.653,22.845,14.653,17.981,17.641,14.989L17.641,14.989z M17.641,14.989"/>
	</g>
	<path d="M21.012,15.458c-0.313-0.313-0.82-0.313-1.133,0c-1.293,1.293-2.004,3.012-2.004,4.844c0,1.828,0.711,3.55,2.004,4.84
		c0.156,0.155,0.36,0.233,0.567,0.233c0.203,0,0.41-0.078,0.566-0.233c0.312-0.313,0.312-0.817,0-1.129
		c-0.992-0.989-1.535-2.309-1.535-3.711c0-1.403,0.543-2.723,1.535-3.711C21.324,16.278,21.324,15.77,21.012,15.458L21.012,15.458z
		 M21.012,15.458"/>
</g>
</svg>
