<?xml version="1.0" encoding="utf-8"?>
<!-- Generator: Adobe Illustrator 16.0.0, SVG Export Plug-In . SVG Version: 6.00 Build 0)  -->
<!DOCTYPE svg PUBLIC "-//W3C//DTD SVG 1.1//EN" "http://www.w3.org/Graphics/SVG/1.1/DTD/svg11.dtd">
<svg version="1.1" id="Слой_1" xmlns="http://www.w3.org/2000/svg" xmlns:xlink="http://www.w3.org/1999/xlink" x="0px" y="0px"
	 width="77.999px" height="68.408px" viewBox="0 0 77.999 68.408" enable-background="new 0 0 77.999 68.408" xml:space="preserve">
<g>
	<path d="M38.198,49.583c-1.764,0-3.202,1.438-3.202,3.199c0,1.766,1.438,3.203,3.202,3.203c1.763,0,3.2-1.438,3.2-3.203
		C41.398,51.021,39.961,49.583,38.198,49.583L38.198,49.583z M38.198,54.384c-0.881,0-1.601-0.719-1.601-1.602
		c0-0.879,0.72-1.598,1.601-1.598c0.879,0,1.599,0.719,1.599,1.598C39.797,53.666,39.077,54.384,38.198,54.384L38.198,54.384z
		 M38.198,54.384"/>
	<path d="M35.797,14.385h3.198c0.443,0,0.802-0.36,0.802-0.801s-0.358-0.801-0.802-0.801h-3.198c-0.441,0-0.801,0.36-0.801,0.801
		S35.356,14.385,35.797,14.385L35.797,14.385z M35.797,14.385"/>
	<path d="M41.398,14.385h0.801c0.441,0,0.797-0.36,0.797-0.801s-0.355-0.801-0.797-0.801h-0.801c-0.441,0-0.801,0.36-0.801,0.801
		S40.957,14.385,41.398,14.385L41.398,14.385z M41.398,14.385"/>
	<path d="M18.359,21.057l-0.203-0.754c-0.113-0.426-0.55-0.68-0.98-0.567c-0.426,0.118-0.68,0.555-0.563,0.981l0.204,0.758
		c0.093,0.355,0.418,0.589,0.769,0.589c0.07,0,0.141-0.007,0.207-0.026C18.223,21.924,18.473,21.486,18.359,21.057L18.359,21.057z
		 M18.359,21.057"/>
	<path d="M16.688,18.274c0.437-0.043,0.761-0.433,0.718-0.871c-0.007-0.066-0.011-0.129-0.011-0.195
		c0-0.121,0.011-0.242,0.035-0.359c0.086-0.434-0.199-0.852-0.633-0.934s-0.855,0.199-0.938,0.633
		c-0.042,0.223-0.062,0.445-0.062,0.664c0,0.113,0.004,0.226,0.016,0.344c0.039,0.414,0.386,0.722,0.796,0.722
		C16.633,18.279,16.66,18.279,16.688,18.274L16.688,18.274z M16.688,18.274"/>
	<path d="M20.383,28.615l-0.199-0.759c-0.117-0.425-0.555-0.679-0.981-0.562c-0.429,0.113-0.679,0.551-0.566,0.979l0.203,0.755
		c0.094,0.355,0.418,0.594,0.769,0.594c0.071,0,0.141-0.008,0.208-0.027C20.246,29.481,20.5,29.041,20.383,28.615L20.383,28.615z
		 M20.383,28.615"/>
	<path d="M24.434,43.728l-0.203-0.754c-0.114-0.43-0.551-0.684-0.977-0.566c-0.43,0.113-0.684,0.551-0.566,0.98l0.203,0.754
		c0.094,0.359,0.418,0.594,0.769,0.594c0.071,0,0.141-0.008,0.207-0.027C24.297,44.591,24.551,44.154,24.434,43.728L24.434,43.728z
		 M24.434,43.728"/>
	<path d="M19.371,24.838l-0.203-0.758c-0.113-0.426-0.551-0.684-0.976-0.566c-0.43,0.117-0.684,0.555-0.567,0.98l0.203,0.758
		c0.094,0.354,0.418,0.59,0.77,0.59c0.07,0,0.14-0.008,0.207-0.028C19.235,25.701,19.488,25.264,19.371,24.838L19.371,24.838z
		 M19.371,24.838"/>
	<path d="M18.692,15.361c0.07,0,0.14-0.007,0.207-0.023l0.757-0.203c0.426-0.117,0.68-0.555,0.567-0.981
		c-0.117-0.425-0.551-0.683-0.981-0.566l-0.757,0.203c-0.426,0.113-0.68,0.551-0.563,0.981
		C18.016,15.126,18.34,15.361,18.692,15.361L18.692,15.361z M18.692,15.361"/>
	<path d="M22.473,14.35c0.066,0,0.136-0.008,0.207-0.028l0.754-0.203c0.425-0.113,0.679-0.551,0.566-0.98
		c-0.113-0.426-0.551-0.684-0.98-0.563l-0.754,0.199c-0.426,0.118-0.68,0.555-0.567,0.981C21.793,14.115,22.117,14.35,22.473,14.35
		L22.473,14.35z M22.473,14.35"/>
	<path d="M23.422,39.951l-0.203-0.758c-0.113-0.426-0.551-0.68-0.981-0.566c-0.425,0.117-0.679,0.555-0.566,0.98l0.203,0.758
		c0.098,0.355,0.422,0.594,0.774,0.594c0.066,0,0.136-0.012,0.207-0.027C23.285,40.814,23.535,40.376,23.422,39.951L23.422,39.951z
		 M23.422,39.951"/>
	<path d="M21.399,32.393l-0.204-0.754c-0.117-0.426-0.554-0.684-0.98-0.566c-0.426,0.113-0.68,0.555-0.566,0.98l0.203,0.754
		c0.097,0.359,0.418,0.593,0.773,0.593c0.067,0,0.137-0.007,0.207-0.026C21.258,33.26,21.512,32.818,21.399,32.393L21.399,32.393z
		 M21.399,32.393"/>
	<path d="M22.41,36.17l-0.203-0.754c-0.113-0.426-0.551-0.685-0.98-0.566c-0.426,0.113-0.68,0.555-0.567,0.98l0.203,0.754
		c0.098,0.359,0.418,0.594,0.774,0.594c0.066,0,0.137-0.008,0.207-0.027C22.27,37.037,22.524,36.6,22.41,36.17L22.41,36.17z
		 M22.41,36.17"/>
	<path d="M59.813,23.518c-0.43-0.118-0.863,0.137-0.98,0.563l-0.203,0.758c-0.113,0.426,0.141,0.863,0.566,0.979
		c0.07,0.017,0.141,0.028,0.207,0.028c0.355,0,0.68-0.239,0.773-0.594l0.203-0.758C60.492,24.068,60.238,23.631,59.813,23.518
		L59.813,23.518z M59.813,23.518"/>
	<path d="M60.824,19.736c-0.43-0.117-0.867,0.141-0.98,0.567l-0.203,0.754c-0.113,0.425,0.141,0.867,0.566,0.98
		c0.07,0.02,0.141,0.026,0.207,0.026c0.355,0,0.676-0.233,0.773-0.593l0.203-0.754C61.504,20.291,61.25,19.85,60.824,19.736
		L60.824,19.736z M60.824,19.736"/>
	<path d="M62.141,16.549c-0.082-0.43-0.5-0.711-0.934-0.633c-0.434,0.082-0.719,0.5-0.637,0.938
		c0.023,0.117,0.035,0.234,0.035,0.359c0,0.062-0.004,0.125-0.012,0.191c-0.039,0.438,0.281,0.828,0.723,0.871
		c0.023,0.004,0.051,0.004,0.074,0.004c0.41,0,0.758-0.308,0.797-0.722c0.012-0.118,0.016-0.231,0.016-0.344
		C62.203,16.994,62.184,16.771,62.141,16.549L62.141,16.549z M62.141,16.549"/>
	<path d="M54.566,14.119l0.758,0.203c0.07,0.02,0.137,0.028,0.207,0.028c0.352,0,0.676-0.235,0.77-0.594
		c0.117-0.426-0.137-0.863-0.563-0.981l-0.758-0.199c-0.43-0.121-0.863,0.137-0.98,0.563C53.887,13.568,54.141,14.006,54.566,14.119
		L54.566,14.119z M54.566,14.119"/>
	<path d="M58.348,15.135l0.754,0.203c0.07,0.016,0.141,0.023,0.207,0.023c0.355,0,0.68-0.234,0.773-0.589
		c0.113-0.43-0.141-0.868-0.566-0.981l-0.754-0.203c-0.43-0.117-0.867,0.141-0.98,0.566C57.668,14.58,57.918,15.018,58.348,15.135
		L58.348,15.135z M58.348,15.135"/>
	<path d="M58.801,27.295c-0.43-0.113-0.867,0.137-0.98,0.566l-0.203,0.754c-0.113,0.426,0.141,0.863,0.566,0.98
		c0.07,0.02,0.141,0.027,0.207,0.027c0.352,0,0.676-0.234,0.773-0.594l0.203-0.755C59.48,27.846,59.227,27.408,58.801,27.295
		L58.801,27.295z M58.801,27.295"/>
	<path d="M53.738,46.185c-0.426-0.113-0.867,0.137-0.98,0.566l-0.152,0.57v-0.141c0-0.012-0.008-0.023-0.008-0.035v-3.055
		c0-0.012,0.008-0.023,0.008-0.039v-0.781c0-0.012-0.008-0.023-0.008-0.039v-3.051c0-0.016,0.008-0.023,0.008-0.039v-0.781
		c0-0.016-0.008-0.023-0.008-0.039v-3.05c0-0.016,0.008-0.027,0.008-0.039v-0.781c0-0.016-0.008-0.027-0.008-0.039v-3.056
		c0-0.011,0.008-0.022,0.008-0.034v-0.785c0-0.013-0.008-0.023-0.008-0.039v-3.051c0-0.012,0.008-0.023,0.008-0.039v-0.785
		c0-0.012-0.008-0.023-0.008-0.035v-3.055c0-0.012,0.008-0.023,0.008-0.039v-0.781c0-0.016-0.008-0.024-0.008-0.039v-3.051
		c0-0.012,0.008-0.023,0.008-0.039v-0.781c0-0.016-0.008-0.028-0.008-0.039v-3.051c0-0.016,0.008-0.027,0.008-0.039v-0.785
		c0-0.012-0.008-0.024-0.008-0.039v-1.942c0-1.941-1.582-3.523-3.523-3.523H28.922c-1.945,0-3.523,1.582-3.523,3.523v33.406
		l-0.153-0.566c-0.117-0.43-0.554-0.688-0.98-0.566c-0.426,0.113-0.68,0.551-0.567,0.98l0.203,0.754
		c0.114,0.426,0.551,0.684,0.981,0.566c0.238-0.063,0.418-0.23,0.516-0.434v1.898c-0.04,0.004-0.079,0-0.122,0.012
		c-0.425,0.113-0.679,0.555-0.566,0.98l0.203,0.754c0.071,0.254,0.258,0.441,0.485,0.531v2.633c0,1.941,1.582,3.523,3.523,3.523
		h20.152c1.941,0,3.523-1.582,3.523-3.523v-2.629c0.23-0.086,0.422-0.273,0.492-0.535l0.199-0.754
		c0.117-0.426-0.137-0.863-0.563-0.98c-0.043-0.012-0.086-0.008-0.129-0.012v-1.891c0-0.004,0.004-0.008,0.004-0.012
		c0.094,0.207,0.281,0.375,0.52,0.438c0.426,0.113,0.863-0.137,0.98-0.566l0.199-0.754C54.418,46.74,54.164,46.298,53.738,46.185
		L53.738,46.185z M26.996,16.783h24v30.402h-24V16.783z M28.922,11.986h20.152c1.059,0,1.922,0.864,1.922,1.922v1.278h-24v-1.278
		C26.996,12.85,27.859,11.986,28.922,11.986L28.922,11.986z M49.074,56.783H28.922c-1.063,0-1.926-0.863-1.926-1.922v-6.078h24
		v6.078C50.996,55.919,50.133,56.783,49.074,56.783L49.074,56.783z M49.074,56.783"/>
	<path d="M55.762,38.63c-0.43-0.117-0.863,0.137-0.98,0.563l-0.203,0.758c-0.113,0.426,0.141,0.863,0.566,0.98
		c0.07,0.016,0.141,0.027,0.207,0.027c0.355,0,0.68-0.238,0.773-0.594l0.203-0.754C56.441,39.181,56.188,38.744,55.762,38.63
		L55.762,38.63z M55.762,38.63"/>
	<path d="M54.75,42.408c-0.43-0.117-0.863,0.137-0.98,0.566l-0.203,0.754c-0.113,0.426,0.141,0.863,0.566,0.98
		c0.07,0.016,0.141,0.027,0.207,0.027c0.355,0,0.68-0.238,0.773-0.594l0.203-0.754C55.43,42.958,55.176,42.521,54.75,42.408
		L54.75,42.408z M54.75,42.408"/>
	<path d="M56.773,34.85c-0.426-0.118-0.863,0.141-0.977,0.566l-0.203,0.758c-0.117,0.426,0.137,0.863,0.566,0.977
		c0.066,0.02,0.137,0.027,0.207,0.027c0.352,0,0.676-0.234,0.77-0.59l0.203-0.758C57.453,35.404,57.199,34.963,56.773,34.85
		L56.773,34.85z M56.773,34.85"/>
	<path d="M57.789,31.072c-0.43-0.117-0.867,0.141-0.98,0.566l-0.203,0.754c-0.113,0.426,0.137,0.867,0.566,0.98
		c0.066,0.02,0.137,0.026,0.207,0.026c0.352,0,0.676-0.237,0.77-0.593l0.203-0.754C58.469,31.627,58.215,31.186,57.789,31.072
		L57.789,31.072z M57.789,31.072"/>
</g>
</svg>
