<?xml version="1.0" encoding="utf-8"?>
<!-- Generator: Adobe Illustrator 16.0.0, SVG Export Plug-In . SVG Version: 6.00 Build 0)  -->
<!DOCTYPE svg PUBLIC "-//W3C//DTD SVG 1.1//EN" "http://www.w3.org/Graphics/SVG/1.1/DTD/svg11.dtd">
<svg version="1.1" id="Слой_1" xmlns="http://www.w3.org/2000/svg" xmlns:xlink="http://www.w3.org/1999/xlink" x="0px" y="0px"
	 width="77.999px" height="68.408px" viewBox="0 0 77.999 68.408" enable-background="new 0 0 77.999 68.408" xml:space="preserve">
<path d="M22.202,55.494"/>
<path d="M57.234,30.035"/>
<g>
	<path d="M27.497,56.553H14.081c-0.986,0-1.788-0.803-1.788-1.788V13.642c0-0.986,0.802-1.788,1.788-1.788h13.417
		c0.494,0,0.894,0.4,0.894,0.894s-0.4,0.894-0.894,0.894H14.081l0,41.124l13.417,0.001c0.494,0,0.894,0.4,0.894,0.894
		S27.991,56.553,27.497,56.553L27.497,56.553z M27.497,56.553"/>
	<path d="M67.72,56.553H54.304c-0.493,0-0.894-0.4-0.894-0.894s0.4-0.894,0.894-0.894H67.72l0.001-41.125H54.304
		c-0.493,0-0.894-0.401-0.894-0.894c0-0.494,0.4-0.894,0.894-0.894H67.72c0.986,0,1.788,0.802,1.788,1.788v41.124
		C69.508,55.75,68.706,56.553,67.72,56.553L67.72,56.553z M67.72,56.553"/>
	<path d="M40.9,52.083c-9.859,0-17.879-8.021-17.879-17.88c0-9.859,8.021-17.88,17.879-17.88c2.954,0,5.883,0.736,8.468,2.129
		c0.435,0.234,0.598,0.776,0.362,1.21c-0.233,0.435-0.775,0.597-1.21,0.363c-2.325-1.252-4.961-1.915-7.62-1.915
		c-8.874,0-16.093,7.219-16.093,16.092S32.027,50.296,40.9,50.296c8.874,0,16.092-7.22,16.092-16.093
		c0-4.855-2.159-9.402-5.927-12.476c-0.382-0.312-0.438-0.875-0.127-1.257c0.313-0.382,0.875-0.44,1.258-0.128
		c4.184,3.414,6.583,8.466,6.583,13.86C58.779,44.062,50.759,52.083,40.9,52.083L40.9,52.083z M40.9,52.083"/>
	<path d="M61.463,52.977c-2.465,0-4.471-2.005-4.471-4.47c0-2.464,2.006-4.47,4.471-4.47c0.378,0,0.754,0.048,1.117,0.142
		c0.479,0.123,0.766,0.61,0.643,1.089c-0.124,0.478-0.61,0.765-1.088,0.642c-0.219-0.056-0.444-0.085-0.672-0.085
		c-1.48,0-2.684,1.204-2.684,2.683c0,1.479,1.203,2.683,2.684,2.683c1.479,0,2.682-1.203,2.682-2.683
		c0-0.228-0.028-0.454-0.085-0.672c-0.123-0.478,0.165-0.965,0.643-1.088c0.479-0.124,0.965,0.164,1.088,0.642
		c0.095,0.363,0.142,0.74,0.142,1.118C65.932,50.972,63.927,52.977,61.463,52.977L61.463,52.977z M61.463,52.977"/>
	<path d="M20.338,52.977c-2.464,0-4.469-2.005-4.469-4.47c0-2.464,2.005-4.47,4.469-4.47c0.378,0,0.755,0.048,1.118,0.142
		c0.478,0.123,0.766,0.61,0.642,1.089c-0.123,0.478-0.61,0.765-1.088,0.642c-0.218-0.056-0.444-0.085-0.672-0.085
		c-1.479,0-2.682,1.204-2.682,2.683c0,1.479,1.203,2.683,2.682,2.683s2.683-1.203,2.683-2.683c0-0.228-0.029-0.454-0.085-0.672
		c-0.123-0.478,0.165-0.965,0.643-1.088c0.478-0.124,0.965,0.164,1.088,0.642c0.093,0.363,0.141,0.74,0.141,1.118
		C24.808,50.972,22.803,52.977,20.338,52.977L20.338,52.977z M20.338,52.977"/>
	<path d="M27.49,24.369c-0.494,0-0.893-0.4-0.893-0.894V12.748c0-0.493,0.399-0.894,0.893-0.894s0.894,0.4,0.894,0.894v10.728
		C28.384,23.969,27.984,24.369,27.49,24.369L27.49,24.369z M27.49,24.369"/>
	<path d="M54.311,24.369c-0.494,0-0.894-0.4-0.894-0.894V12.748c0-0.493,0.399-0.894,0.894-0.894c0.493,0,0.894,0.4,0.894,0.894
		v10.728C55.204,23.969,54.804,24.369,54.311,24.369L54.311,24.369z M54.311,24.369"/>
	<path d="M27.49,56.553c-0.494,0-0.893-0.4-0.893-0.894V44.932c0-0.494,0.399-0.895,0.893-0.895s0.894,0.4,0.894,0.895V55.66
		C28.384,56.153,27.984,56.553,27.49,56.553L27.49,56.553z M27.49,56.553"/>
	<path d="M54.311,56.553c-0.494,0-0.894-0.4-0.894-0.894V44.932c0-0.494,0.399-0.895,0.894-0.895c0.493,0,0.894,0.4,0.894,0.895
		V55.66C55.204,56.153,54.804,56.553,54.311,56.553L54.311,56.553z M54.311,56.553"/>
	<path d="M18.562,42.257c-0.986,0-1.788-0.802-1.788-1.788c0-0.985,0.802-1.787,1.788-1.787c0.985,0,1.787,0.802,1.787,1.787
		C20.349,41.456,19.547,42.257,18.562,42.257L18.562,42.257z M18.562,42.257"/>
	<path d="M54.304,14.556H27.609c-0.494,0-0.894-0.4-0.894-0.893c0-0.494,0.4-0.894,0.894-0.894h26.695
		c0.493,0,0.894,0.4,0.894,0.894C55.197,14.156,54.797,14.556,54.304,14.556L54.304,14.556z M54.304,14.556"/>
	<path d="M54.304,55.66H27.609c-0.494,0-0.894-0.4-0.894-0.894c0-0.494,0.4-0.894,0.894-0.894h26.695
		c0.493,0,0.894,0.399,0.894,0.894C55.197,55.259,54.797,55.66,54.304,55.66L54.304,55.66z M54.304,55.66"/>
</g>
</svg>
