<?xml version="1.0" encoding="utf-8"?>
<!-- Generator: Adobe Illustrator 16.0.0, SVG Export Plug-In . SVG Version: 6.00 Build 0)  -->
<!DOCTYPE svg PUBLIC "-//W3C//DTD SVG 1.1//EN" "http://www.w3.org/Graphics/SVG/1.1/DTD/svg11.dtd">
<svg version="1.1" id="Слой_1" xmlns="http://www.w3.org/2000/svg" xmlns:xlink="http://www.w3.org/1999/xlink" x="0px" y="0px"
	 width="77.999px" height="68.408px" viewBox="0 0 77.999 68.408" enable-background="new 0 0 77.999 68.408" xml:space="preserve">
<g>
	<g>
		<defs>
			<rect id="SVGID_1_" x="18.199" y="17.224" width="48" height="39.84"/>
		</defs>
		<clipPath id="SVGID_2_">
			<use xlink:href="#SVGID_1_"  overflow="visible"/>
		</clipPath>
		<path clip-path="url(#SVGID_2_)" d="M64.711,37.287c-0.063-0.188-0.168-0.359-0.328-0.496l-7.109-6.543
			c-0.199-0.16-0.449-0.25-0.711-0.25h-0.855c-0.469-3.98-2.711-8.574-3.711-10.457c-0.203-0.387-0.543-0.68-0.953-0.828
			l-3.559-1.297c-0.551-0.199-1.168-0.125-1.652,0.199l-0.473,0.316c-0.059,0.039-0.121,0.059-0.191,0.059h-7.309
			c-0.066,0-0.134-0.02-0.187-0.059l-0.474-0.316c-0.487-0.324-1.105-0.398-1.656-0.199l-3.555,1.297
			c-0.414,0.148-0.754,0.441-0.957,0.824c-1,1.887-3.242,6.48-3.711,10.461h-0.121c-0.258,0-0.508,0.086-0.742,0.277l-7.211,6.492
			c-0.176,0.141-0.293,0.324-0.359,0.52c-0.418,0.328-0.688,0.829-0.688,1.391V54.33c0,0.98,0.797,1.773,1.773,1.773h43.653
			c0.977,0,1.773-0.793,1.773-1.773V38.677C65.398,38.111,65.129,37.611,64.711,37.287L64.711,37.287z M19.953,38.787h19.849v1.316
			h-20v-1.34C19.851,38.771,19.898,38.787,19.953,38.787L19.953,38.787z M19.801,41.705h20v9.602h-20V41.705z M41.397,41.705h22.403
			v9.602H41.397V41.705z M41.397,40.103v-1.316h22.247c0.055,0,0.102-0.016,0.156-0.023v1.34H41.397z M32.445,20.287
			c0.02-0.035,0.047-0.059,0.09-0.074l3.559-1.293c0.023-0.008,0.05-0.012,0.082-0.012c0.046,0,0.093,0.012,0.132,0.039l0.477,0.316
			c0.319,0.215,0.69,0.324,1.074,0.324h7.313c0.383,0,0.754-0.113,1.074-0.324l0.473-0.316c0.066-0.047,0.145-0.055,0.219-0.027
			l3.559,1.293c0.039,0.016,0.07,0.039,0.086,0.074c2.324,4.387,5.422,12.34,2.211,14.316l-4.23-3.625
			c-0.176-0.152-0.367-0.289-0.566-0.406c-0.633-0.379-1.359-0.586-2.105-0.586h-8.753c-0.041,0-0.076,0.012-0.114,0.012h-0.015
			c-0.017,0-0.033,0.004-0.047,0.008c-0.216,0.008-0.431,0.027-0.642,0.074c-0.012,0-0.023,0.004-0.031,0.008
			c-0.219,0.043-0.43,0.102-0.633,0.184c-0.035,0.012-0.07,0.035-0.105,0.047c-0.176,0.074-0.352,0.152-0.516,0.25
			c-0.199,0.121-0.391,0.254-0.57,0.406l-4.293,3.645c-0.176-0.109-0.325-0.246-0.461-0.395c-0.032-0.031-0.067-0.066-0.098-0.105
			c-0.125-0.152-0.242-0.316-0.336-0.5c-0.008-0.016-0.016-0.035-0.023-0.055c-0.086-0.176-0.157-0.363-0.215-0.563
			c-0.012-0.047-0.028-0.094-0.039-0.145c-0.117-0.461-0.168-0.977-0.164-1.539c0-0.02,0.004-0.043,0.004-0.063
			C28.902,27.966,30.851,23.291,32.445,20.287L32.445,20.287z M27.234,31.724c0.004,0.039,0.008,0.07,0.008,0.109
			c0.008,0.152,0.019,0.301,0.035,0.445c0.008,0.07,0.012,0.145,0.02,0.215c0.027,0.199,0.058,0.395,0.101,0.586
			c0.012,0.059,0.031,0.113,0.043,0.168c0.035,0.137,0.07,0.27,0.113,0.398c0.024,0.074,0.051,0.141,0.079,0.211
			c0.039,0.109,0.082,0.215,0.128,0.32c0.032,0.066,0.067,0.133,0.102,0.199c0.051,0.102,0.106,0.195,0.164,0.289
			c0.039,0.063,0.074,0.121,0.117,0.18c0.063,0.094,0.137,0.184,0.211,0.273c0.039,0.051,0.078,0.102,0.121,0.148
			c0.086,0.094,0.18,0.18,0.274,0.266c0.043,0.039,0.078,0.078,0.117,0.109c0.141,0.117,0.289,0.227,0.445,0.328
			c0.606,0.383,1.41,0.32,1.965-0.152l4.231-3.625c0.105-0.094,0.222-0.176,0.343-0.25c0.094-0.055,0.196-0.098,0.297-0.145
			c0.028-0.012,0.051-0.023,0.078-0.035c0.118-0.047,0.239-0.078,0.36-0.105c0.011-0.004,0.027-0.008,0.043-0.012
			c0.131-0.027,0.268-0.043,0.402-0.047h8.938c0.43,0.012,0.844,0.133,1.207,0.348c0.121,0.07,0.234,0.152,0.344,0.246l4.23,3.625
			c0.129,0.109,0.273,0.191,0.422,0.258c0.02,0.008,0.035,0.02,0.055,0.023c0.145,0.059,0.293,0.09,0.441,0.105
			c0.031,0.004,0.055,0.008,0.086,0.008c0.027,0.004,0.059,0.008,0.09,0.008c0.086,0,0.168-0.02,0.25-0.035
			c0.055-0.008,0.109-0.008,0.164-0.02c0.16-0.043,0.313-0.105,0.453-0.191c0.16-0.105,0.313-0.215,0.449-0.332
			c0.047-0.039,0.086-0.082,0.129-0.121c0.094-0.082,0.184-0.168,0.266-0.258c0.047-0.051,0.09-0.109,0.133-0.164
			c0.074-0.086,0.141-0.172,0.207-0.266c0.039-0.063,0.078-0.125,0.121-0.188c0.055-0.098,0.109-0.191,0.16-0.289
			c0.035-0.07,0.07-0.137,0.102-0.211c0.051-0.105,0.094-0.219,0.133-0.328c0.027-0.07,0.055-0.137,0.078-0.207
			c0.055-0.18,0.105-0.359,0.145-0.547c0.016-0.066,0.023-0.141,0.035-0.207c0.027-0.137,0.051-0.273,0.066-0.414
			c0.008-0.086,0.02-0.172,0.023-0.262c0.012-0.141,0.023-0.285,0.027-0.43c0.004-0.051,0.008-0.098,0.012-0.152h0.582l5.762,5.309
			H21.484L27.234,31.724z M19.972,54.505c-0.093,0-0.171-0.078-0.171-0.176v-1.426h20v1.602H19.972z M63.625,54.505H41.397v-1.602
			h22.403v1.426C63.801,54.427,63.723,54.505,63.625,54.505L63.625,54.505z M63.625,54.505"/>
	</g>
	<rect x="22.199" y="45.705" width="12" height="1.602"/>
	<rect x="35.801" y="45.705" width="1.598" height="1.602"/>
	<path d="M58.199,43.306c-1.766,0-3.199,1.435-3.199,3.199c0,1.762,1.434,3.199,3.199,3.199s3.199-1.438,3.199-3.199
		C61.398,44.741,59.965,43.306,58.199,43.306L58.199,43.306z M58.199,48.103c-0.883,0-1.602-0.715-1.602-1.598
		s0.719-1.602,1.602-1.602s1.602,0.719,1.602,1.602S59.082,48.103,58.199,48.103L58.199,48.103z M58.199,48.103"/>
	<path d="M46.598,28.904c1.547,0,2.801-1.254,2.801-2.801c0-1.543-1.254-2.797-2.801-2.797c-1.543,0-2.797,1.254-2.797,2.797
		C43.801,27.65,45.055,28.904,46.598,28.904L46.598,28.904z M46.598,24.904c0.664,0,1.203,0.539,1.203,1.199
		c0,0.664-0.539,1.203-1.203,1.203c-0.66,0-1.199-0.539-1.199-1.203C45.398,25.443,45.938,24.904,46.598,24.904L46.598,24.904z
		 M46.598,24.904"/>
	<path d="M34.597,25.705c1.547,0,2.801-1.258,2.801-2.801s-1.254-2.801-2.801-2.801c-1.543,0-2.796,1.258-2.796,2.801
		S33.054,25.705,34.597,25.705L34.597,25.705z M34.597,21.705c0.664,0,1.204,0.539,1.204,1.199s-0.54,1.199-1.204,1.199
		c-0.66,0-1.199-0.539-1.199-1.199S33.937,21.705,34.597,21.705L34.597,21.705z M34.597,21.705"/>
	<path d="M37.398,26.505h-1.597v1.598h1.597v1.602H39v-1.602h1.597v-1.598H39v-1.602h-1.602V26.505z M37.398,26.505"/>
	<rect x="43.801" y="20.904" width="1.598" height="1.603"/>
	<rect x="47" y="20.103" width="1.598" height="1.602"/>
</g>
</svg>
