<?xml version="1.0" encoding="utf-8"?>
<!-- Generator: Adobe Illustrator 16.0.0, SVG Export Plug-In . SVG Version: 6.00 Build 0)  -->
<!DOCTYPE svg PUBLIC "-//W3C//DTD SVG 1.1//EN" "http://www.w3.org/Graphics/SVG/1.1/DTD/svg11.dtd">
<svg version="1.1" id="Слой_1" xmlns="http://www.w3.org/2000/svg" xmlns:xlink="http://www.w3.org/1999/xlink" x="0px" y="0px"
	 width="77.999px" height="68.408px" viewBox="0 0 77.999 68.408" enable-background="new 0 0 77.999 68.408" xml:space="preserve">
<g>
	<path d="M68.714,4.085H9.286c-1.129,0-2.051,0.922-2.051,2.051v9.126c0,1.133,0.922,2.056,2.051,2.056h59.428
		c1.133,0,2.052-0.923,2.052-2.056V6.137C70.766,5.008,69.847,4.085,68.714,4.085L68.714,4.085z M68.714,4.085"/>
	<path d="M68.714,28.038H9.286c-1.129,0-2.051,0.922-2.051,2.052v9.126c0,1.133,0.922,2.055,2.051,2.055h59.428
		c1.133,0,2.052-0.922,2.052-2.055V30.09C70.766,28.96,69.847,28.038,68.714,28.038L68.714,28.038z M68.714,28.038"/>
	<path d="M68.714,51.991H9.286c-1.129,0-2.051,0.923-2.051,2.052v9.127c0,1.133,0.922,2.055,2.051,2.055h59.428
		c1.133,0,2.052-0.922,2.052-2.055v-9.127C70.766,52.914,69.847,51.991,68.714,51.991L68.714,51.991z M68.714,51.991"/>
</g>
</svg>
