<?xml version="1.0" encoding="utf-8"?>
<!-- Generator: Adobe Illustrator 16.0.0, SVG Export Plug-In . SVG Version: 6.00 Build 0)  -->
<!DOCTYPE svg PUBLIC "-//W3C//DTD SVG 1.1//EN" "http://www.w3.org/Graphics/SVG/1.1/DTD/svg11.dtd">
<svg version="1.1" id="Слой_1" xmlns="http://www.w3.org/2000/svg" xmlns:xlink="http://www.w3.org/1999/xlink" x="0px" y="0px"
	 width="77.999px" height="68.408px" viewBox="0 0 77.999 68.408" enable-background="new 0 0 77.999 68.408" xml:space="preserve">
<g>
	<path d="M62.981,29.677c0.008-0.035,0.008-0.066,0.012-0.098c0-0.039,0-0.078-0.004-0.117c-0.004-0.035-0.008-0.066-0.016-0.098
		c-0.008-0.039-0.02-0.078-0.035-0.113c-0.008-0.02-0.008-0.039-0.016-0.059c-0.008-0.012-0.02-0.023-0.027-0.035
		c-0.008-0.016-0.008-0.027-0.016-0.043l-8-12.801c-0.039-0.059-0.082-0.109-0.129-0.156c-0.004,0-0.004,0-0.004,0
		c-0.07-0.067-0.148-0.114-0.238-0.149c-0.012-0.008-0.02-0.015-0.031-0.019c-0.008-0.004-0.016-0.004-0.027-0.004
		c-0.078-0.027-0.164-0.047-0.25-0.047H23.802c-0.086,0-0.168,0.02-0.25,0.043c-0.008,0.004-0.016,0.004-0.024,0.004
		c-0.011,0.008-0.019,0.015-0.031,0.019c-0.082,0.036-0.16,0.079-0.23,0.141c-0.004,0.004-0.008,0.008-0.012,0.012
		c-0.051,0.043-0.094,0.097-0.133,0.156l-8,12.801c-0.008,0.012-0.012,0.027-0.015,0.043c-0.008,0.012-0.02,0.023-0.028,0.035
		c-0.008,0.02-0.008,0.039-0.015,0.059c-0.016,0.035-0.028,0.074-0.036,0.113c-0.007,0.031-0.015,0.063-0.019,0.098
		c-0.004,0.039-0.004,0.078-0.004,0.117c0.004,0.031,0.004,0.063,0.012,0.098c0.004,0.039,0.015,0.074,0.027,0.113
		c0.012,0.031,0.023,0.063,0.039,0.09c0.004,0.016,0.008,0.031,0.016,0.047c0.011,0.023,0.031,0.039,0.047,0.063
		c0.011,0.016,0.019,0.035,0.031,0.051L38.368,58.83c0,0.004,0.004,0.004,0.004,0.004l0.004,0.008
		c0.004,0.004,0.008,0.004,0.008,0.008c0.066,0.078,0.148,0.137,0.238,0.188c0.024,0.012,0.047,0.023,0.071,0.031
		c0.097,0.043,0.199,0.07,0.308,0.07c0.09,0,0.18-0.016,0.274-0.047c0.011-0.008,0.022-0.016,0.035-0.023
		c0.039-0.016,0.074-0.043,0.108-0.066c0.063-0.039,0.117-0.078,0.164-0.129c0.013-0.012,0.027-0.02,0.039-0.031l23.199-28.801
		c0.016-0.016,0.02-0.035,0.031-0.051c0.016-0.023,0.035-0.039,0.047-0.063c0.008-0.016,0.012-0.031,0.02-0.047
		c0.012-0.027,0.023-0.059,0.035-0.09C62.966,29.751,62.978,29.716,62.981,29.677L62.981,29.677z M40.681,17.541h12.367
		l-3.887,10.433L40.681,17.541z M47.72,28.74H30.282l8.719-10.731L47.72,28.74z M28.782,28.044l-3.839-10.503h12.374L28.782,28.044z
		 M48.278,30.341L38.86,55.626l-9.242-25.285H48.278z M54.38,18.541l6.375,10.199H50.583L54.38,18.541z M23.61,18.552l3.723,10.188
		h-10.09L23.61,18.552z M27.916,30.341l8.672,23.73L17.47,30.341H27.916z M40.915,54.685l9.07-24.344h10.543L40.915,54.685z
		 M40.915,54.685"/>
</g>
</svg>
