<?xml version="1.0" encoding="utf-8"?>
<!-- Generator: Adobe Illustrator 16.0.0, SVG Export Plug-In . SVG Version: 6.00 Build 0)  -->
<!DOCTYPE svg PUBLIC "-//W3C//DTD SVG 1.1//EN" "http://www.w3.org/Graphics/SVG/1.1/DTD/svg11.dtd">
<svg version="1.1" id="Слой_1" xmlns="http://www.w3.org/2000/svg" xmlns:xlink="http://www.w3.org/1999/xlink" x="0px" y="0px"
	 width="77.999px" height="68.408px" viewBox="0 0 77.999 68.408" enable-background="new 0 0 77.999 68.408" xml:space="preserve">
<g>
	<path d="M16.071,23.256c0.403-0.184,0.578-0.66,0.395-1.062c-0.184-0.399-0.656-0.579-1.059-0.395
		c-0.554,0.254-1.07,0.586-1.535,0.988c-0.332,0.289-0.367,0.793-0.078,1.125c0.156,0.184,0.379,0.278,0.605,0.278
		c0.184,0,0.371-0.063,0.524-0.196C15.267,23.694,15.653,23.444,16.071,23.256L16.071,23.256z M16.071,23.256"/>
	<path d="M18.864,22.822h1.602c0.441,0,0.801-0.355,0.801-0.8c0-0.442-0.36-0.797-0.801-0.797h-1.602
		c-0.441,0-0.801,0.355-0.801,0.797C18.063,22.467,18.423,22.822,18.864,22.822L18.864,22.822z M18.864,22.822"/>
	<path d="M23.665,22.822h1.602c0.441,0,0.796-0.355,0.796-0.8c0-0.442-0.355-0.797-0.796-0.797h-1.602
		c-0.441,0-0.801,0.355-0.801,0.797C22.864,22.467,23.224,22.822,23.665,22.822L23.665,22.822z M23.665,22.822"/>
	<path d="M20.466,32.424h-1.602c-0.441,0-0.801,0.355-0.801,0.801c0,0.441,0.36,0.797,0.801,0.797h1.602
		c0.441,0,0.801-0.356,0.801-0.797C21.267,32.779,20.907,32.424,20.466,32.424L20.466,32.424z M20.466,32.424"/>
	<path d="M30.063,32.424h-1.597c-0.442,0-0.801,0.355-0.801,0.801c0,0.441,0.359,0.797,0.801,0.797h1.597
		c0.446,0,0.801-0.356,0.801-0.797C30.864,32.779,30.509,32.424,30.063,32.424L30.063,32.424z M30.063,32.424"/>
	<path d="M25.267,32.424h-1.602c-0.441,0-0.801,0.355-0.801,0.801c0,0.441,0.36,0.797,0.801,0.797h1.602
		c0.441,0,0.796-0.356,0.796-0.797C26.063,32.779,25.708,32.424,25.267,32.424L25.267,32.424z M25.267,32.424"/>
	<path d="M16.071,31.99c-0.414-0.191-0.801-0.437-1.148-0.738c-0.332-0.289-0.84-0.254-1.129,0.078
		c-0.289,0.336-0.254,0.84,0.082,1.129c0.461,0.403,0.977,0.735,1.531,0.985c0.106,0.05,0.219,0.074,0.332,0.074
		c0.301,0,0.594-0.172,0.727-0.465C16.649,32.651,16.474,32.174,16.071,31.99L16.071,31.99z M16.071,31.99"/>
	<path d="M34.864,32.424h-1.597c-0.446,0-0.801,0.355-0.801,0.801c0,0.441,0.355,0.797,0.801,0.797h1.597
		c0.442,0,0.801-0.356,0.801-0.797C35.665,32.779,35.306,32.424,34.864,32.424L34.864,32.424z M34.864,32.424"/>
	<path d="M49.267,32.424h-1.602c-0.441,0-0.801,0.355-0.801,0.801c0,0.441,0.359,0.797,0.801,0.797h1.602
		c0.441,0,0.797-0.356,0.797-0.797C50.063,32.779,49.708,32.424,49.267,32.424L49.267,32.424z M49.267,32.424"/>
	<path d="M54.063,32.424h-1.598c-0.441,0-0.801,0.355-0.801,0.801c0,0.441,0.359,0.797,0.801,0.797h1.598
		c0.445,0,0.801-0.356,0.801-0.797C54.864,32.779,54.509,32.424,54.063,32.424L54.063,32.424z M54.063,32.424"/>
	<path d="M39.665,32.424h-1.602c-0.441,0-0.797,0.355-0.797,0.801c0,0.441,0.355,0.797,0.797,0.797h1.602
		c0.441,0,0.801-0.356,0.801-0.797C40.466,32.779,40.106,32.424,39.665,32.424L39.665,32.424z M39.665,32.424"/>
	<path d="M44.466,32.424h-1.602c-0.441,0-0.801,0.355-0.801,0.801c0,0.441,0.359,0.797,0.801,0.797h1.602
		c0.441,0,0.801-0.356,0.801-0.797C45.267,32.779,44.907,32.424,44.466,32.424L44.466,32.424z M44.466,32.424"/>
	<path d="M16.071,55.99c-0.414-0.191-0.801-0.438-1.148-0.738c-0.332-0.289-0.84-0.254-1.129,0.078
		c-0.289,0.336-0.254,0.84,0.082,1.129c0.461,0.404,0.977,0.736,1.531,0.986c0.106,0.049,0.219,0.072,0.332,0.072
		c0.301,0,0.594-0.172,0.727-0.465C16.649,56.65,16.474,56.173,16.071,55.99L16.071,55.99z M16.071,55.99"/>
	<path d="M25.267,56.423h-1.602c-0.441,0-0.801,0.355-0.801,0.801c0,0.441,0.36,0.797,0.801,0.797h1.602
		c0.441,0,0.796-0.355,0.796-0.797C26.063,56.779,25.708,56.423,25.267,56.423L25.267,56.423z M25.267,56.423"/>
	<path d="M20.466,56.423h-1.602c-0.441,0-0.801,0.355-0.801,0.801c0,0.441,0.36,0.797,0.801,0.797h1.602
		c0.441,0,0.801-0.355,0.801-0.797C21.267,56.779,20.907,56.423,20.466,56.423L20.466,56.423z M20.466,56.423"/>
	<path d="M39.665,56.423h-1.602c-0.441,0-0.797,0.355-0.797,0.801c0,0.441,0.355,0.797,0.797,0.797h1.602
		c0.441,0,0.801-0.355,0.801-0.797C40.466,56.779,40.106,56.423,39.665,56.423L39.665,56.423z M39.665,56.423"/>
	<path d="M42.063,57.224c0,0.441,0.359,0.797,0.801,0.797h1.602c0.441,0,0.801-0.355,0.801-0.797c0-0.445-0.359-0.801-0.801-0.801
		h-1.602C42.423,56.423,42.063,56.779,42.063,57.224L42.063,57.224z M42.063,57.224"/>
	<path d="M47.665,58.021h1.602c0.441,0,0.797-0.355,0.797-0.797c0-0.445-0.355-0.801-0.797-0.801h-1.602
		c-0.441,0-0.801,0.355-0.801,0.801C46.864,57.666,47.224,58.021,47.665,58.021L47.665,58.021z M47.665,58.021"/>
	<path d="M34.864,56.423h-1.597c-0.446,0-0.801,0.355-0.801,0.801c0,0.441,0.355,0.797,0.801,0.797h1.597
		c0.442,0,0.801-0.355,0.801-0.797C35.665,56.779,35.306,56.423,34.864,56.423L34.864,56.423z M34.864,56.423"/>
	<path d="M52.466,58.021h1.598c0.445,0,0.801-0.355,0.801-0.797c0-0.445-0.355-0.801-0.801-0.801h-1.598
		c-0.441,0-0.801,0.355-0.801,0.801C51.665,57.666,52.024,58.021,52.466,58.021L52.466,58.021z M52.466,58.021"/>
	<path d="M30.063,56.423h-1.597c-0.442,0-0.801,0.355-0.801,0.801c0,0.441,0.359,0.797,0.801,0.797h1.597
		c0.446,0,0.801-0.355,0.801-0.797C30.864,56.779,30.509,56.423,30.063,56.423L30.063,56.423z M30.063,56.423"/>
	<path d="M46.864,44.423c0,1.766,1.438,3.199,3.199,3.199c1.766,0,3.203-1.434,3.203-3.199s-1.438-3.199-3.203-3.199
		C48.302,41.224,46.864,42.658,46.864,44.423L46.864,44.423z M50.063,42.822c0.883,0,1.602,0.719,1.602,1.602
		s-0.719,1.598-1.602,1.598c-0.879,0-1.598-0.715-1.598-1.598S49.185,42.822,50.063,42.822L50.063,42.822z M50.063,42.822"/>
	<path d="M46.021,18.022l-4.352-4.348c-0.352-0.355-0.934-0.355-1.285,0l-1.637,1.637l-1.637-1.637c-0.355-0.355-0.933-0.355-1.29,0
		l-4.347,4.348H18.063c-3.527,0-6.398,2.871-6.398,6.402v31.078c0,3.152,2.566,5.723,5.723,5.723h42.277V18.022H46.021z
		 M41.028,15.295l13.93,13.93h-4.316l-9.012-9.016c-0.34-0.328-0.867-0.328-1.215,0.008l-9.004,9.008h-4.312l12.777-12.781
		L41.028,15.295z M48.384,29.225H33.673l7.355-7.356L48.384,29.225z M36.466,15.295l1.148,1.149L24.833,29.225h-2.297l11.199-11.203
		L36.466,15.295z M18.063,19.623h11.809l-1.648,1.649c-0.243,0.078-0.426,0.261-0.504,0.507l-7.446,7.446h-2.211
		c-2.644,0-4.796-2.156-4.796-4.801C13.267,21.776,15.419,19.623,18.063,19.623L18.063,19.623z M58.063,48.423h-8.797
		c-2.207,0-4-1.797-4-4c0-2.207,1.793-4,4-4h8.797V48.423z M58.063,32.424h-0.797c-0.445,0-0.801,0.355-0.801,0.801
		c0,0.441,0.355,0.797,0.801,0.797h0.797v4.8h-8.797c-3.09,0-5.602,2.512-5.602,5.602c0,3.086,2.512,5.598,5.602,5.598h8.797v6.402
		h-0.797c-0.445,0-0.801,0.355-0.801,0.801c0,0.441,0.355,0.797,0.801,0.797h0.797v1.602H17.388c-2.274,0-4.121-1.848-4.121-4.121
		v-1.764c0.183-0.201,0.273-0.482,0.191-0.764c-0.129-0.438-0.191-0.891-0.191-1.352V29.737c0.183-0.2,0.273-0.481,0.191-0.762
		c-0.016-0.051-0.02-0.106-0.035-0.156c0.074,0.074,0.144,0.148,0.219,0.222c0.07,0.067,0.14,0.129,0.214,0.192
		c0.09,0.078,0.18,0.156,0.274,0.226c0.074,0.063,0.152,0.117,0.23,0.172c0.098,0.07,0.196,0.137,0.297,0.199
		c0.082,0.051,0.16,0.102,0.246,0.149c0.106,0.062,0.211,0.117,0.321,0.172c0.086,0.043,0.168,0.086,0.253,0.125
		c0.118,0.05,0.231,0.093,0.348,0.136c0.086,0.035,0.172,0.067,0.262,0.098c0.125,0.039,0.254,0.07,0.383,0.105
		c0.082,0.024,0.168,0.047,0.254,0.067c0.144,0.031,0.289,0.051,0.437,0.074c0.074,0.008,0.149,0.023,0.223,0.031
		c0.222,0.024,0.449,0.039,0.679,0.039h40V32.424z M57.22,29.225l-6.402-6.403h0.047c0.441,0,0.801-0.355,0.801-0.8
		c0-0.442-0.359-0.797-0.801-0.797h-1.598c-0.016,0-0.027,0.004-0.039,0.008l-1.609-1.61h10.445v9.602H57.22z M57.22,29.225"/>
	<path d="M55.665,21.225h-1.602c-0.441,0-0.797,0.355-0.797,0.797c0,0.445,0.355,0.8,0.797,0.8h1.602c0.441,0,0.801-0.355,0.801-0.8
		C56.466,21.58,56.106,21.225,55.665,21.225L55.665,21.225z M55.665,21.225"/>
</g>
</svg>
